<svg id="Capa_1" data-name="Capa 1" xmlns="http://www.w3.org/2000/svg" viewBox="0 0 473.93 473.93"><title>heart</title><path id="svg_1" data-name="svg 1" d="M237,472.93c-130.92,0-237-106-237-237S106.05-1,237-1s237,106.05,237,237S367.89,472.93,237,472.93Z" transform="translate(0 1)" style="fill:#e00b4e"/><path id="svg_2" data-name="svg 2" d="M315.52,111.86a86.61,86.61,0,0,0-71.67,37.58l-3.32,4.22-2.21-2.82a85.44,85.44,0,0,0-71.84-39c-49.66,0-85.71,36-85.71,85.7,0,73.33,132.74,181.4,142.42,189.18a24.47,24.47,0,0,0,33.8,0c9.71-7.83,144.25-117.61,144.25-189.17,0-49.66-36.06-85.71-85.72-85.71Z" transform="translate(0 1)" style="fill:#fff"/></svg>