<svg id="Layer_1" data-name="Layer 1" xmlns="http://www.w3.org/2000/svg" viewBox="0 0 1501.6 1504.4"><title>like</title><ellipse cx="750.8" cy="752.2" rx="750.8" ry="752.2" style="fill:#5e91ff"/><path d="M379.65,667.5h165.1a23.58,23.58,0,0,1,23.6,23.6v379.1a23.58,23.58,0,0,1-23.6,23.6H379.65a23.58,23.58,0,0,1-23.6-23.6V691A23.62,23.62,0,0,1,379.65,667.5Zm246.4,337.2V733.1a359.34,359.34,0,0,1,54.1-189.2c21.5-34.4,69.7-89.5,96.7-118,6-6.4,27.8-25.2,27.8-35.5,0-13.2,1.5-34.5,2-74.2.3-25.2,20.8-45.9,46-45.7h1.1c44.1.8,58.2,41.6,58.2,41.6s37.7,74.4,2.5,165.4c-29.7,76.9-35.8,83.1-35.8,83.1s-9.6,13.9,20.8,13.3c0,0,185.6-.8,192-.8,13.7,0,57.4,12.5,54.9,68.2-1.8,41.2-27.4,55.6-40.5,60.3a3.18,3.18,0,0,0-1.9,4.2,3.53,3.53,0,0,0,1.5,1.7c13.4,7.8,40.8,27.5,40.2,57.7-.8,36.6-15.5,50.1-46.1,58.5a3.15,3.15,0,0,0-2.3,3.9,3.1,3.1,0,0,0,1.5,2c11.6,6.6,31.5,22.7,30.3,55.3-1.2,33.2-25.2,44.9-38.3,48.9a3.24,3.24,0,0,0-2.2,4,3.38,3.38,0,0,0,1.3,1.8c8.3,5.7,20.6,18.6,20,45.1-.3,14-5,24.2-10.9,31.5-9.3,11.5-23.9,17.5-38.7,17.6l-411.8.8c-.1-.1-22.4,0-22.4-29.9Z" transform="translate(-1.35)" style="fill:#fff"/></svg>