<svg xmlns="http://www.w3.org/2000/svg" viewBox="0 0 500 500"><g id="freepik--background-complete--inject-2"><rect y="382.4" width="500" height="0.25" style="fill:#ebebeb"></rect><rect x="416.78" y="398.49" width="33.12" height="0.25" style="fill:#ebebeb"></rect><rect x="322.53" y="401.21" width="8.69" height="0.25" style="fill:#ebebeb"></rect><rect x="396.59" y="389.21" width="19.19" height="0.25" style="fill:#ebebeb"></rect><rect x="52.46" y="390.89" width="43.19" height="0.25" style="fill:#ebebeb"></rect><rect x="104.56" y="390.89" width="6.33" height="0.25" style="fill:#ebebeb"></rect><rect x="131.47" y="395.11" width="93.68" height="0.25" style="fill:#ebebeb"></rect><path d="M237,337.8H43.91a5.71,5.71,0,0,1-5.7-5.71V60.66A5.71,5.71,0,0,1,43.91,55H237a5.71,5.71,0,0,1,5.71,5.71V332.09A5.71,5.71,0,0,1,237,337.8ZM43.91,55.2a5.46,5.46,0,0,0-5.45,5.46V332.09a5.46,5.46,0,0,0,5.45,5.46H237a5.47,5.47,0,0,0,5.46-5.46V60.66A5.47,5.47,0,0,0,237,55.2Z" style="fill:#ebebeb"></path><path d="M453.31,337.8H260.21a5.72,5.72,0,0,1-5.71-5.71V60.66A5.72,5.72,0,0,1,260.21,55h193.1A5.71,5.71,0,0,1,459,60.66V332.09A5.71,5.71,0,0,1,453.31,337.8ZM260.21,55.2a5.47,5.47,0,0,0-5.46,5.46V332.09a5.47,5.47,0,0,0,5.46,5.46h193.1a5.47,5.47,0,0,0,5.46-5.46V60.66a5.47,5.47,0,0,0-5.46-5.46Z" style="fill:#ebebeb"></path><path d="M334.32,153.68h-14.1v-27.1l13,1.46.28.36.27-.29,23.72,2.66.22.27.21-.23,47.74,5.36V350.86h13.22V117.61H317.57v36.07H304.36v7h30Zm71.37-20.17-7.3-.82,7.3-10Zm-1.46-13.26-7.72,10.53-8.89-10.53Zm-10,12-16.4-1.84,7.95-8.17Zm-10.23-12-8.39,8.63-7.83-8.63ZM373,129.84l-12.75-1.43L366,122.2Zm-8.72-9.59L357.9,127l-5.35-6.75Zm-9,7.6-8.4-.95,4-4.59Zm-6.09-7.6-4.31,4.92-3.92-4.92Zm-6.7,6.16-6.4-.72,3.11-3.41Zm-5-6.16-3.73,4.08-3.24-4.08Zm-6.47,4.87-4.43-.49,2.16-2.35Zm-4-4.87-2.37,2.56-1.88-2.56Zm-6.72,1.11,2.06,2.79-2.06-.23Z" style="fill:#f0f0f0"></path><path d="M347.54,155.44H344V334.32h45.82V150.15h-3.52v16.74H368.68v-8.81H366v8.81h-18.5Zm21.14,15.86h17.63V181H368.68Zm-21.14,0H366V181h-18.5Z" style="fill:#f0f0f0"></path><path d="M181.18,168V100H77V373.72H90.54V119.1l49.11-5.5.22.23.22-.28,24.4-2.74.27.3.29-.36,13.41-1.51V168H164v7.25h30.81V168ZM111,104.75l8.17,8.41-16.87,1.89Zm-11,8.81-7.94-10.83h17.09Zm12.82-10.83h16.68l-8.05,8.87Zm65.65,1.14v2.64l-2.12.24Zm-4.48,1.5-2.43-2.64h4.37Zm-6-2.64-3.34,4.2-3.83-4.2Zm-10.75,0-4,5.06-4.42-5.06Zm-12,0-5.5,6.94-6.51-6.94Zm-54.66,2.55,7.52,10.25-7.52.84Zm33.68,7.31,7.12-7.85,6,6.38ZM147,104.85l4.13,4.72-8.64,1Zm8.64,4.22,3.39-4.25,3.2,3.51Zm14.14-4.25,2.23,2.41-4.56.51Z" style="fill:#ebebeb"></path><path d="M150.36,181.58h-19v-9.06h-2.72v9.06H110.48V164.36h-3.62V353.78H154v-184h-3.63Zm-21.75,14.5H110.48v-10h18.13Zm21.75,0h-19v-10h19Z" style="fill:#ebebeb"></path><polygon points="434.01 381.88 434.01 335.51 430.05 335.51 430.05 313.41 424.25 313.41 424.25 236.59 415.87 236.59 415.87 226.68 397.98 218.34 397.98 208.34 395.5 208.34 395.5 236.59 392.03 236.59 392.03 313.41 388.56 313.41 388.56 273.02 379.15 273.02 379.15 252.2 376.52 252.2 376.52 313.41 369.37 313.41 369.37 290.12 364.66 290.12 364.66 284.17 353.75 284.17 353.75 263.85 347.79 263.85 347.79 249.48 340.44 249.48 340.44 228.54 337.82 228.54 337.82 249.48 330.49 249.48 330.49 263.85 324.51 263.85 324.51 284.17 313.61 284.17 313.61 290.12 308.9 290.12 308.9 313.41 303.32 313.41 303.32 284.17 292.41 284.17 292.41 221.23 288.94 221.23 288.94 214.29 265.65 214.29 265.65 221.23 260.69 221.23 260.69 266.82 240.87 266.82 240.87 271.28 233.44 271.28 233.44 274.75 240.87 274.75 240.87 292.6 220.05 292.6 220.05 233.12 215.59 233.12 215.59 220.48 205.93 220.48 205.93 175.63 203.2 175.63 203.2 220.48 196.26 220.48 196.26 233.12 155.58 233.12 155.58 228.96 153.11 228.96 153.11 257.21 149.64 257.21 149.64 257.71 147.55 257.71 147.55 285.96 144.08 285.96 144.08 293.64 136.75 293.64 136.75 272.82 134.12 272.82 134.12 322.39 131.2 322.39 131.2 301.57 128.57 301.57 128.57 334.03 126.97 334.03 126.97 310.74 122.26 310.74 122.26 304.79 111.36 304.79 111.36 284.47 105.39 284.47 105.39 270.1 98.05 270.1 98.05 249.16 95.43 249.16 95.43 270.1 88.09 270.1 88.09 284.47 82.12 284.47 82.12 304.79 71.21 304.79 71.21 310.74 66.5 310.74 66.5 333.54 65.66 333.54 65.66 334.03 63.33 334.03 63.33 381.88 434.01 381.88" style="fill:#e0e0e0"></polygon><rect x="178.28" y="235.9" width="2.81" height="2.81" style="fill:#f5f5f5"></rect><rect x="178.28" y="240.61" width="2.81" height="2.81" style="fill:#f5f5f5"></rect><rect x="178.28" y="259.44" width="2.81" height="2.81" style="fill:#f5f5f5"></rect><rect x="178.28" y="264.15" width="2.81" height="2.81" style="fill:#f5f5f5"></rect><rect x="178.28" y="268.86" width="2.81" height="2.81" style="fill:#f5f5f5"></rect><rect x="178.28" y="282.98" width="2.81" height="2.81" style="fill:#f5f5f5"></rect><rect x="178.28" y="287.69" width="2.81" height="2.81" style="fill:#f5f5f5"></rect><rect x="182.74" y="254.73" width="2.81" height="2.81" style="fill:#f5f5f5"></rect><rect x="182.74" y="259.44" width="2.81" height="2.81" style="fill:#f5f5f5"></rect><rect x="182.74" y="264.15" width="2.81" height="2.81" style="fill:#f5f5f5"></rect><rect x="182.74" y="268.86" width="2.81" height="2.81" style="fill:#f5f5f5"></rect><rect x="182.74" y="273.57" width="2.81" height="2.81" style="fill:#f5f5f5"></rect><rect x="182.74" y="282.98" width="2.81" height="2.81" style="fill:#f5f5f5"></rect><rect x="182.74" y="287.69" width="2.81" height="2.81" style="fill:#f5f5f5"></rect><rect x="187.2" y="235.9" width="2.81" height="2.81" style="fill:#f5f5f5"></rect><rect x="187.2" y="240.61" width="2.81" height="2.81" style="fill:#f5f5f5"></rect><rect x="187.2" y="245.32" width="2.81" height="2.81" style="fill:#f5f5f5"></rect><rect x="187.2" y="250.03" width="2.81" height="2.81" style="fill:#f5f5f5"></rect><rect x="187.2" y="254.73" width="2.81" height="2.81" style="fill:#f5f5f5"></rect><rect x="187.2" y="259.44" width="2.81" height="2.81" style="fill:#f5f5f5"></rect><rect x="187.2" y="264.15" width="2.81" height="2.81" style="fill:#f5f5f5"></rect><rect x="187.2" y="268.86" width="2.81" height="2.81" style="fill:#f5f5f5"></rect><rect x="187.2" y="273.57" width="2.81" height="2.81" style="fill:#f5f5f5"></rect><rect x="187.2" y="278.28" width="2.81" height="2.81" style="fill:#f5f5f5"></rect><rect x="187.2" y="287.69" width="2.81" height="2.81" style="fill:#f5f5f5"></rect><rect x="191.66" y="235.9" width="2.81" height="2.81" style="fill:#f5f5f5"></rect><rect x="191.66" y="240.61" width="2.81" height="2.81" style="fill:#f5f5f5"></rect><rect x="191.66" y="245.32" width="2.81" height="2.81" style="fill:#f5f5f5"></rect><rect x="191.66" y="250.03" width="2.81" height="2.81" style="fill:#f5f5f5"></rect><rect x="191.66" y="254.73" width="2.81" height="2.81" style="fill:#f5f5f5"></rect><rect x="191.66" y="259.44" width="2.81" height="2.81" style="fill:#f5f5f5"></rect><rect x="191.66" y="264.15" width="2.81" height="2.81" style="fill:#f5f5f5"></rect><rect x="191.66" y="306.53" width="2.81" height="2.81" style="fill:#f5f5f5"></rect><rect x="196.12" y="235.9" width="2.81" height="2.81" style="fill:#f5f5f5"></rect><rect x="196.12" y="240.61" width="2.81" height="2.81" style="fill:#f5f5f5"></rect><rect x="196.12" y="245.32" width="2.81" height="2.81" style="fill:#f5f5f5"></rect><rect x="196.12" y="250.03" width="2.81" height="2.81" style="fill:#f5f5f5"></rect><rect x="196.12" y="254.73" width="2.81" height="2.81" style="fill:#f5f5f5"></rect><rect x="196.12" y="259.44" width="2.81" height="2.81" style="fill:#f5f5f5"></rect><rect x="196.12" y="264.15" width="2.81" height="2.81" style="fill:#f5f5f5"></rect><rect x="196.12" y="268.86" width="2.81" height="2.81" style="fill:#f5f5f5"></rect><rect x="196.12" y="297.11" width="2.81" height="2.81" style="fill:#f5f5f5"></rect><rect x="196.12" y="301.82" width="2.81" height="2.81" style="fill:#f5f5f5"></rect><rect x="196.12" y="306.53" width="2.81" height="2.81" style="fill:#f5f5f5"></rect><rect x="196.12" y="311.23" width="2.81" height="2.81" style="fill:#f5f5f5"></rect><rect x="196.12" y="330.07" width="2.81" height="2.81" style="fill:#f5f5f5"></rect><rect x="200.58" y="235.9" width="2.81" height="2.81" style="fill:#f5f5f5"></rect><rect x="200.58" y="240.61" width="2.81" height="2.81" style="fill:#f5f5f5"></rect><rect x="200.58" y="245.32" width="2.81" height="2.81" style="fill:#f5f5f5"></rect><rect x="200.58" y="250.03" width="2.81" height="2.81" style="fill:#f5f5f5"></rect><rect x="200.58" y="254.73" width="2.81" height="2.81" style="fill:#f5f5f5"></rect><rect x="200.58" y="259.44" width="2.81" height="2.81" style="fill:#f5f5f5"></rect><rect x="200.58" y="264.15" width="2.81" height="2.81" style="fill:#f5f5f5"></rect><rect x="200.58" y="268.86" width="2.81" height="2.81" style="fill:#f5f5f5"></rect><rect x="200.58" y="273.57" width="2.81" height="2.81" style="fill:#f5f5f5"></rect><rect x="200.58" y="278.28" width="2.81" height="2.81" style="fill:#f5f5f5"></rect><rect x="200.58" y="292.4" width="2.81" height="2.81" style="fill:#f5f5f5"></rect><rect x="200.58" y="297.11" width="2.81" height="2.81" style="fill:#f5f5f5"></rect><rect x="200.58" y="301.82" width="2.81" height="2.81" style="fill:#f5f5f5"></rect><rect x="200.58" y="306.53" width="2.81" height="2.81" style="fill:#f5f5f5"></rect><rect x="200.58" y="311.23" width="2.81" height="2.81" style="fill:#f5f5f5"></rect><rect x="200.58" y="330.07" width="2.81" height="2.81" style="fill:#f5f5f5"></rect><rect x="205.05" y="235.9" width="2.81" height="2.81" style="fill:#f5f5f5"></rect><rect x="205.05" y="240.61" width="2.81" height="2.81" style="fill:#f5f5f5"></rect><rect x="205.05" y="245.32" width="2.81" height="2.81" style="fill:#f5f5f5"></rect><rect x="205.05" y="250.03" width="2.81" height="2.81" style="fill:#f5f5f5"></rect><rect x="205.05" y="254.73" width="2.81" height="2.81" style="fill:#f5f5f5"></rect><rect x="205.05" y="259.44" width="2.81" height="2.81" style="fill:#f5f5f5"></rect><rect x="205.05" y="264.15" width="2.81" height="2.81" style="fill:#f5f5f5"></rect><rect x="205.05" y="268.86" width="2.81" height="2.81" style="fill:#f5f5f5"></rect><rect x="205.05" y="273.57" width="2.81" height="2.81" style="fill:#f5f5f5"></rect><rect x="205.05" y="278.28" width="2.81" height="2.81" style="fill:#f5f5f5"></rect><rect x="205.05" y="282.98" width="2.81" height="2.81" style="fill:#f5f5f5"></rect><rect x="205.05" y="287.69" width="2.81" height="2.81" style="fill:#f5f5f5"></rect><rect x="205.05" y="292.4" width="2.81" height="2.81" style="fill:#f5f5f5"></rect><rect x="205.05" y="297.11" width="2.81" height="2.81" style="fill:#f5f5f5"></rect><rect x="205.05" y="301.82" width="2.81" height="2.81" style="fill:#f5f5f5"></rect><rect x="205.05" y="306.53" width="2.81" height="2.81" style="fill:#f5f5f5"></rect><rect x="205.05" y="311.23" width="2.81" height="2.81" style="fill:#f5f5f5"></rect><rect x="205.05" y="315.94" width="2.81" height="2.81" style="fill:#f5f5f5"></rect><rect x="209.51" y="235.9" width="2.81" height="2.81" style="fill:#f5f5f5"></rect><rect x="209.51" y="240.61" width="2.81" height="2.81" style="fill:#f5f5f5"></rect><rect x="209.51" y="245.32" width="2.81" height="2.81" style="fill:#f5f5f5"></rect><rect x="209.51" y="250.03" width="2.81" height="2.81" style="fill:#f5f5f5"></rect><rect x="209.51" y="254.73" width="2.81" height="2.81" style="fill:#f5f5f5"></rect><rect x="209.51" y="259.44" width="2.81" height="2.81" style="fill:#f5f5f5"></rect><rect x="209.51" y="264.15" width="2.81" height="2.81" style="fill:#f5f5f5"></rect><rect x="209.51" y="268.86" width="2.81" height="2.81" style="fill:#f5f5f5"></rect><rect x="209.51" y="273.57" width="2.81" height="2.81" style="fill:#f5f5f5"></rect><rect x="209.51" y="278.28" width="2.81" height="2.81" style="fill:#f5f5f5"></rect><rect x="209.51" y="292.4" width="2.81" height="2.81" style="fill:#f5f5f5"></rect><rect x="209.51" y="297.11" width="2.81" height="2.81" style="fill:#f5f5f5"></rect><rect x="209.51" y="301.82" width="2.81" height="2.81" style="fill:#f5f5f5"></rect><rect x="209.51" y="306.53" width="2.81" height="2.81" style="fill:#f5f5f5"></rect><rect x="213.97" y="235.9" width="2.81" height="2.81" style="fill:#f5f5f5"></rect><rect x="213.97" y="240.61" width="2.81" height="2.81" style="fill:#f5f5f5"></rect><rect x="213.97" y="245.32" width="2.81" height="2.81" style="fill:#f5f5f5"></rect><rect x="213.97" y="250.03" width="2.81" height="2.81" style="fill:#f5f5f5"></rect><rect x="213.97" y="254.73" width="2.81" height="2.81" style="fill:#f5f5f5"></rect><rect x="213.97" y="259.44" width="2.81" height="2.81" style="fill:#f5f5f5"></rect><rect x="213.97" y="264.15" width="2.81" height="2.81" style="fill:#f5f5f5"></rect><rect x="213.97" y="268.86" width="2.81" height="2.81" style="fill:#f5f5f5"></rect><rect x="213.97" y="273.57" width="2.81" height="2.81" style="fill:#f5f5f5"></rect><rect x="213.97" y="278.28" width="2.81" height="2.81" style="fill:#f5f5f5"></rect><rect x="213.97" y="292.4" width="2.81" height="2.81" style="fill:#f5f5f5"></rect><rect x="213.97" y="297.11" width="2.81" height="2.81" style="fill:#f5f5f5"></rect><rect x="213.97" y="301.82" width="2.81" height="2.81" style="fill:#f5f5f5"></rect><rect x="264.19" y="223.67" width="2.81" height="2.81" style="fill:#f5f5f5"></rect><rect x="264.19" y="228.38" width="2.81" height="2.81" style="fill:#f5f5f5"></rect><rect x="264.19" y="233.09" width="2.81" height="2.81" style="fill:#f5f5f5"></rect><rect x="264.19" y="237.8" width="2.81" height="2.81" style="fill:#f5f5f5"></rect><rect x="264.19" y="242.51" width="2.81" height="2.81" style="fill:#f5f5f5"></rect><rect x="264.19" y="247.22" width="2.81" height="2.81" style="fill:#f5f5f5"></rect><rect x="264.19" y="251.93" width="2.81" height="2.81" style="fill:#f5f5f5"></rect><rect x="264.19" y="256.63" width="2.81" height="2.81" style="fill:#f5f5f5"></rect><rect x="264.19" y="270.76" width="2.81" height="2.81" style="fill:#f5f5f5"></rect><rect x="264.19" y="275.47" width="2.81" height="2.81" style="fill:#f5f5f5"></rect><rect x="268.65" y="223.67" width="2.81" height="2.81" style="fill:#f5f5f5"></rect><rect x="268.65" y="228.38" width="2.81" height="2.81" style="fill:#f5f5f5"></rect><rect x="268.65" y="233.09" width="2.81" height="2.81" style="fill:#f5f5f5"></rect><rect x="268.65" y="237.8" width="2.81" height="2.81" style="fill:#f5f5f5"></rect><rect x="268.65" y="242.51" width="2.81" height="2.81" style="fill:#f5f5f5"></rect><rect x="268.65" y="247.22" width="2.81" height="2.81" style="fill:#f5f5f5"></rect><rect x="268.65" y="251.93" width="2.81" height="2.81" style="fill:#f5f5f5"></rect><rect x="268.65" y="256.63" width="2.81" height="2.81" style="fill:#f5f5f5"></rect><rect x="268.65" y="275.47" width="2.81" height="2.81" style="fill:#f5f5f5"></rect><rect x="273.11" y="223.67" width="2.81" height="2.81" style="fill:#f5f5f5"></rect><rect x="273.11" y="228.38" width="2.81" height="2.81" style="fill:#f5f5f5"></rect><rect x="273.11" y="233.09" width="2.81" height="2.81" style="fill:#f5f5f5"></rect><rect x="273.11" y="237.8" width="2.81" height="2.81" style="fill:#f5f5f5"></rect><rect x="273.11" y="242.51" width="2.81" height="2.81" style="fill:#f5f5f5"></rect><rect x="273.11" y="247.22" width="2.81" height="2.81" style="fill:#f5f5f5"></rect><rect x="273.11" y="251.93" width="2.81" height="2.81" style="fill:#f5f5f5"></rect><rect x="273.11" y="256.63" width="2.81" height="2.81" style="fill:#f5f5f5"></rect><rect x="277.57" y="223.67" width="2.81" height="2.81" style="fill:#f5f5f5"></rect><rect x="277.57" y="228.38" width="2.81" height="2.81" style="fill:#f5f5f5"></rect><rect x="277.57" y="233.09" width="2.81" height="2.81" style="fill:#f5f5f5"></rect><rect x="277.57" y="237.8" width="2.81" height="2.81" style="fill:#f5f5f5"></rect><rect x="277.57" y="242.51" width="2.81" height="2.81" style="fill:#f5f5f5"></rect><rect x="277.57" y="247.22" width="2.81" height="2.81" style="fill:#f5f5f5"></rect><rect x="277.57" y="256.63" width="2.81" height="2.81" style="fill:#f5f5f5"></rect><rect x="277.57" y="261.34" width="2.81" height="2.81" style="fill:#f5f5f5"></rect><rect x="277.57" y="275.47" width="2.81" height="2.81" style="fill:#f5f5f5"></rect><rect x="277.57" y="280.18" width="2.81" height="2.81" style="fill:#f5f5f5"></rect><rect x="277.57" y="284.88" width="2.81" height="2.81" style="fill:#f5f5f5"></rect><rect x="277.57" y="289.59" width="2.81" height="2.81" style="fill:#f5f5f5"></rect><rect x="277.57" y="294.3" width="2.81" height="2.81" style="fill:#f5f5f5"></rect><rect x="277.57" y="299.01" width="2.81" height="2.81" style="fill:#f5f5f5"></rect><rect x="277.57" y="303.72" width="2.81" height="2.81" style="fill:#f5f5f5"></rect><rect x="282.03" y="223.67" width="2.81" height="2.81" style="fill:#f5f5f5"></rect><rect x="282.03" y="228.38" width="2.81" height="2.81" style="fill:#f5f5f5"></rect><rect x="282.03" y="233.09" width="2.81" height="2.81" style="fill:#f5f5f5"></rect><rect x="282.03" y="237.8" width="2.81" height="2.81" style="fill:#f5f5f5"></rect><rect x="282.03" y="242.51" width="2.81" height="2.81" style="fill:#f5f5f5"></rect><rect x="282.03" y="247.22" width="2.81" height="2.81" style="fill:#f5f5f5"></rect><rect x="282.03" y="261.34" width="2.81" height="2.81" style="fill:#f5f5f5"></rect><rect x="282.03" y="266.05" width="2.81" height="2.81" style="fill:#f5f5f5"></rect><rect x="282.03" y="270.76" width="2.81" height="2.81" style="fill:#f5f5f5"></rect><rect x="282.03" y="275.47" width="2.81" height="2.81" style="fill:#f5f5f5"></rect><rect x="282.03" y="280.18" width="2.81" height="2.81" style="fill:#f5f5f5"></rect><rect x="282.03" y="284.88" width="2.81" height="2.81" style="fill:#f5f5f5"></rect><rect x="282.03" y="289.59" width="2.81" height="2.81" style="fill:#f5f5f5"></rect><rect x="282.03" y="294.3" width="2.81" height="2.81" style="fill:#f5f5f5"></rect><rect x="282.03" y="299.01" width="2.81" height="2.81" style="fill:#f5f5f5"></rect><rect x="282.03" y="303.72" width="2.81" height="2.81" style="fill:#f5f5f5"></rect><rect x="282.03" y="308.43" width="2.81" height="2.81" style="fill:#f5f5f5"></rect><rect x="282.03" y="317.84" width="2.81" height="2.81" style="fill:#f5f5f5"></rect><rect x="286.49" y="223.67" width="2.81" height="2.81" style="fill:#f5f5f5"></rect><rect x="286.49" y="228.38" width="2.81" height="2.81" style="fill:#f5f5f5"></rect><rect x="286.49" y="233.09" width="2.81" height="2.81" style="fill:#f5f5f5"></rect><rect x="286.49" y="237.8" width="2.81" height="2.81" style="fill:#f5f5f5"></rect><rect x="286.49" y="242.51" width="2.81" height="2.81" style="fill:#f5f5f5"></rect><rect x="286.49" y="247.22" width="2.81" height="2.81" style="fill:#f5f5f5"></rect><rect x="286.49" y="261.34" width="2.81" height="2.81" style="fill:#f5f5f5"></rect><rect x="286.49" y="266.05" width="2.81" height="2.81" style="fill:#f5f5f5"></rect><rect x="286.49" y="270.76" width="2.81" height="2.81" style="fill:#f5f5f5"></rect><rect x="286.49" y="275.47" width="2.81" height="2.81" style="fill:#f5f5f5"></rect><rect x="286.49" y="289.59" width="2.81" height="2.81" style="fill:#f5f5f5"></rect><rect x="286.49" y="294.3" width="2.81" height="2.81" style="fill:#f5f5f5"></rect><rect x="286.49" y="299.01" width="2.81" height="2.81" style="fill:#f5f5f5"></rect><rect x="286.49" y="303.72" width="2.81" height="2.81" style="fill:#f5f5f5"></rect><rect x="286.49" y="308.43" width="2.81" height="2.81" style="fill:#f5f5f5"></rect><rect x="286.49" y="317.84" width="2.81" height="2.81" style="fill:#f5f5f5"></rect><rect x="286.49" y="322.55" width="2.81" height="2.81" style="fill:#f5f5f5"></rect><rect x="326.97" y="267.45" width="2.81" height="2.81" style="fill:#f5f5f5"></rect><rect x="326.97" y="272.16" width="2.81" height="2.81" style="fill:#f5f5f5"></rect><rect x="326.97" y="276.87" width="2.81" height="2.81" style="fill:#f5f5f5"></rect><rect x="326.97" y="281.58" width="2.81" height="2.81" style="fill:#f5f5f5"></rect><rect x="326.97" y="286.29" width="2.81" height="2.81" style="fill:#f5f5f5"></rect><rect x="326.97" y="291" width="2.81" height="2.81" style="fill:#f5f5f5"></rect><rect x="326.97" y="295.71" width="2.81" height="2.81" style="fill:#f5f5f5"></rect><rect x="326.97" y="309.83" width="2.81" height="2.81" style="fill:#f5f5f5"></rect><rect x="326.97" y="314.54" width="2.81" height="2.81" style="fill:#f5f5f5"></rect><rect x="326.97" y="319.25" width="2.81" height="2.81" style="fill:#f5f5f5"></rect><rect x="331.43" y="267.45" width="2.81" height="2.81" style="fill:#f5f5f5"></rect><rect x="331.43" y="272.16" width="2.81" height="2.81" style="fill:#f5f5f5"></rect><rect x="331.43" y="276.87" width="2.81" height="2.81" style="fill:#f5f5f5"></rect><rect x="331.43" y="281.58" width="2.81" height="2.81" style="fill:#f5f5f5"></rect><rect x="331.43" y="286.29" width="2.81" height="2.81" style="fill:#f5f5f5"></rect><rect x="331.43" y="291" width="2.81" height="2.81" style="fill:#f5f5f5"></rect><rect x="331.43" y="295.71" width="2.81" height="2.81" style="fill:#f5f5f5"></rect><rect x="335.89" y="267.45" width="2.81" height="2.81" style="fill:#f5f5f5"></rect><rect x="335.89" y="272.16" width="2.81" height="2.81" style="fill:#f5f5f5"></rect><rect x="335.89" y="276.87" width="2.81" height="2.81" style="fill:#f5f5f5"></rect><rect x="335.89" y="281.58" width="2.81" height="2.81" style="fill:#f5f5f5"></rect><rect x="335.89" y="286.29" width="2.81" height="2.81" style="fill:#f5f5f5"></rect><rect x="335.89" y="291" width="2.81" height="2.81" style="fill:#f5f5f5"></rect><rect x="335.89" y="295.71" width="2.81" height="2.81" style="fill:#f5f5f5"></rect><rect x="340.35" y="267.45" width="2.81" height="2.81" style="fill:#f5f5f5"></rect><rect x="340.35" y="272.16" width="2.81" height="2.81" style="fill:#f5f5f5"></rect><rect x="340.35" y="276.87" width="2.81" height="2.81" style="fill:#f5f5f5"></rect><rect x="340.35" y="281.58" width="2.81" height="2.81" style="fill:#f5f5f5"></rect><rect x="340.35" y="286.29" width="2.81" height="2.81" style="fill:#f5f5f5"></rect><rect x="340.35" y="291" width="2.81" height="2.81" style="fill:#f5f5f5"></rect><rect x="340.35" y="295.71" width="2.81" height="2.81" style="fill:#f5f5f5"></rect><rect x="340.35" y="300.41" width="2.81" height="2.81" style="fill:#f5f5f5"></rect><rect x="340.35" y="305.12" width="2.81" height="2.81" style="fill:#f5f5f5"></rect><rect x="340.35" y="309.83" width="2.81" height="2.81" style="fill:#f5f5f5"></rect><rect x="340.35" y="314.54" width="2.81" height="2.81" style="fill:#f5f5f5"></rect><rect x="344.81" y="267.45" width="2.81" height="2.81" style="fill:#f5f5f5"></rect><rect x="344.81" y="272.16" width="2.81" height="2.81" style="fill:#f5f5f5"></rect><rect x="344.81" y="276.87" width="2.81" height="2.81" style="fill:#f5f5f5"></rect><rect x="344.81" y="281.58" width="2.81" height="2.81" style="fill:#f5f5f5"></rect><rect x="344.81" y="286.29" width="2.81" height="2.81" style="fill:#f5f5f5"></rect><rect x="344.81" y="291" width="2.81" height="2.81" style="fill:#f5f5f5"></rect><rect x="344.81" y="295.71" width="2.81" height="2.81" style="fill:#f5f5f5"></rect><rect x="344.81" y="300.41" width="2.81" height="2.81" style="fill:#f5f5f5"></rect><rect x="344.81" y="305.12" width="2.81" height="2.81" style="fill:#f5f5f5"></rect><rect x="344.81" y="309.83" width="2.81" height="2.81" style="fill:#f5f5f5"></rect><rect x="344.81" y="314.54" width="2.81" height="2.81" style="fill:#f5f5f5"></rect><rect x="344.81" y="319.25" width="2.81" height="2.81" style="fill:#f5f5f5"></rect><rect x="344.81" y="333.37" width="2.81" height="2.81" style="fill:#f5f5f5"></rect><rect x="344.81" y="338.08" width="2.81" height="2.81" style="fill:#f5f5f5"></rect><rect x="349.27" y="267.45" width="2.81" height="2.81" style="fill:#f5f5f5"></rect><rect x="349.27" y="272.16" width="2.81" height="2.81" style="fill:#f5f5f5"></rect><rect x="349.27" y="276.87" width="2.81" height="2.81" style="fill:#f5f5f5"></rect><rect x="349.27" y="291" width="2.81" height="2.81" style="fill:#f5f5f5"></rect><rect x="349.27" y="295.71" width="2.81" height="2.81" style="fill:#f5f5f5"></rect><rect x="349.27" y="300.41" width="2.81" height="2.81" style="fill:#f5f5f5"></rect><rect x="349.27" y="305.12" width="2.81" height="2.81" style="fill:#f5f5f5"></rect><rect x="349.27" y="309.83" width="2.81" height="2.81" style="fill:#f5f5f5"></rect><rect x="349.27" y="314.54" width="2.81" height="2.81" style="fill:#f5f5f5"></rect><rect x="349.27" y="319.25" width="2.81" height="2.81" style="fill:#f5f5f5"></rect><rect x="349.27" y="333.37" width="2.81" height="2.81" style="fill:#f5f5f5"></rect><rect x="349.27" y="338.08" width="2.81" height="2.81" style="fill:#f5f5f5"></rect><rect x="349.27" y="342.79" width="2.81" height="2.81" style="fill:#f5f5f5"></rect><rect x="396.02" y="239.2" width="2.81" height="2.81" style="fill:#f5f5f5"></rect><rect x="396.02" y="243.91" width="2.81" height="2.81" style="fill:#f5f5f5"></rect><rect x="396.02" y="248.62" width="2.81" height="2.81" style="fill:#f5f5f5"></rect><rect x="396.02" y="253.33" width="2.81" height="2.81" style="fill:#f5f5f5"></rect><rect x="396.02" y="258.04" width="2.81" height="2.81" style="fill:#f5f5f5"></rect><rect x="396.02" y="262.75" width="2.81" height="2.81" style="fill:#f5f5f5"></rect><rect x="396.02" y="267.45" width="2.81" height="2.81" style="fill:#f5f5f5"></rect><rect x="396.02" y="272.16" width="2.81" height="2.81" style="fill:#f5f5f5"></rect><rect x="396.02" y="276.87" width="2.81" height="2.81" style="fill:#f5f5f5"></rect><rect x="396.02" y="281.58" width="2.81" height="2.81" style="fill:#f5f5f5"></rect><rect x="396.02" y="286.29" width="2.81" height="2.81" style="fill:#f5f5f5"></rect><rect x="396.02" y="291" width="2.81" height="2.81" style="fill:#f5f5f5"></rect><rect x="396.02" y="295.71" width="2.81" height="2.81" style="fill:#f5f5f5"></rect><rect x="396.02" y="300.41" width="2.81" height="2.81" style="fill:#f5f5f5"></rect><rect x="396.02" y="305.12" width="2.81" height="2.81" style="fill:#f5f5f5"></rect><rect x="396.02" y="309.83" width="2.81" height="2.81" style="fill:#f5f5f5"></rect><rect x="396.02" y="314.54" width="2.81" height="2.81" style="fill:#f5f5f5"></rect><rect x="396.02" y="319.25" width="2.81" height="2.81" style="fill:#f5f5f5"></rect><rect x="396.02" y="323.96" width="2.81" height="2.81" style="fill:#f5f5f5"></rect><rect x="396.02" y="328.66" width="2.81" height="2.81" style="fill:#f5f5f5"></rect><rect x="396.02" y="333.37" width="2.81" height="2.81" style="fill:#f5f5f5"></rect><rect x="396.02" y="338.08" width="2.81" height="2.81" style="fill:#f5f5f5"></rect><rect x="396.02" y="342.79" width="2.81" height="2.81" style="fill:#f5f5f5"></rect><rect x="400.48" y="239.2" width="2.81" height="2.81" style="fill:#f5f5f5"></rect><rect x="400.48" y="243.91" width="2.81" height="2.81" style="fill:#f5f5f5"></rect><rect x="400.48" y="248.62" width="2.81" height="2.81" style="fill:#f5f5f5"></rect><rect x="400.48" y="253.33" width="2.81" height="2.81" style="fill:#f5f5f5"></rect><rect x="400.48" y="258.04" width="2.81" height="2.81" style="fill:#f5f5f5"></rect><rect x="400.48" y="262.75" width="2.81" height="2.81" style="fill:#f5f5f5"></rect><rect x="400.48" y="267.45" width="2.81" height="2.81" style="fill:#f5f5f5"></rect><rect x="400.48" y="272.16" width="2.81" height="2.81" style="fill:#f5f5f5"></rect><rect x="400.48" y="276.87" width="2.81" height="2.81" style="fill:#f5f5f5"></rect><rect x="400.48" y="281.58" width="2.81" height="2.81" style="fill:#f5f5f5"></rect><rect x="400.48" y="286.29" width="2.81" height="2.81" style="fill:#f5f5f5"></rect><rect x="400.48" y="291" width="2.81" height="2.81" style="fill:#f5f5f5"></rect><rect x="400.48" y="295.71" width="2.81" height="2.81" style="fill:#f5f5f5"></rect><rect x="400.48" y="300.41" width="2.81" height="2.81" style="fill:#f5f5f5"></rect><rect x="400.48" y="305.12" width="2.81" height="2.81" style="fill:#f5f5f5"></rect><rect x="400.48" y="309.83" width="2.81" height="2.81" style="fill:#f5f5f5"></rect><rect x="400.48" y="314.54" width="2.81" height="2.81" style="fill:#f5f5f5"></rect><rect x="400.48" y="319.25" width="2.81" height="2.81" style="fill:#f5f5f5"></rect><rect x="400.48" y="323.96" width="2.81" height="2.81" style="fill:#f5f5f5"></rect><rect x="404.95" y="239.2" width="2.81" height="2.81" style="fill:#f5f5f5"></rect><rect x="404.95" y="243.91" width="2.81" height="2.81" style="fill:#f5f5f5"></rect><rect x="404.95" y="248.62" width="2.81" height="2.81" style="fill:#f5f5f5"></rect><rect x="404.95" y="253.33" width="2.81" height="2.81" style="fill:#f5f5f5"></rect><rect x="404.95" y="258.04" width="2.81" height="2.81" style="fill:#f5f5f5"></rect><rect x="404.95" y="262.75" width="2.81" height="2.81" style="fill:#f5f5f5"></rect><rect x="404.95" y="267.45" width="2.81" height="2.81" style="fill:#f5f5f5"></rect><rect x="404.95" y="272.16" width="2.81" height="2.81" style="fill:#f5f5f5"></rect><rect x="404.95" y="276.87" width="2.81" height="2.81" style="fill:#f5f5f5"></rect><rect x="404.95" y="281.58" width="2.81" height="2.81" style="fill:#f5f5f5"></rect><rect x="404.95" y="286.29" width="2.81" height="2.81" style="fill:#f5f5f5"></rect><rect x="404.95" y="291" width="2.81" height="2.81" style="fill:#f5f5f5"></rect><rect x="404.95" y="295.71" width="2.81" height="2.81" style="fill:#f5f5f5"></rect><rect x="404.95" y="300.41" width="2.81" height="2.81" style="fill:#f5f5f5"></rect><rect x="404.95" y="305.12" width="2.81" height="2.81" style="fill:#f5f5f5"></rect><rect x="404.95" y="309.83" width="2.81" height="2.81" style="fill:#f5f5f5"></rect><rect x="404.95" y="314.54" width="2.81" height="2.81" style="fill:#f5f5f5"></rect><rect x="404.95" y="319.25" width="2.81" height="2.81" style="fill:#f5f5f5"></rect><rect x="404.95" y="323.96" width="2.81" height="2.81" style="fill:#f5f5f5"></rect><rect x="409.41" y="239.2" width="2.81" height="2.81" style="fill:#f5f5f5"></rect><rect x="409.41" y="243.91" width="2.81" height="2.81" style="fill:#f5f5f5"></rect><rect x="409.41" y="248.62" width="2.81" height="2.81" style="fill:#f5f5f5"></rect><rect x="409.41" y="253.33" width="2.81" height="2.81" style="fill:#f5f5f5"></rect><rect x="409.41" y="258.04" width="2.81" height="2.81" style="fill:#f5f5f5"></rect><rect x="409.41" y="262.75" width="2.81" height="2.81" style="fill:#f5f5f5"></rect><rect x="409.41" y="267.45" width="2.81" height="2.81" style="fill:#f5f5f5"></rect><rect x="409.41" y="272.16" width="2.81" height="2.81" style="fill:#f5f5f5"></rect><rect x="409.41" y="276.87" width="2.81" height="2.81" style="fill:#f5f5f5"></rect><rect x="409.41" y="281.58" width="2.81" height="2.81" style="fill:#f5f5f5"></rect><rect x="409.41" y="286.29" width="2.81" height="2.81" style="fill:#f5f5f5"></rect><rect x="409.41" y="291" width="2.81" height="2.81" style="fill:#f5f5f5"></rect><rect x="409.41" y="295.71" width="2.81" height="2.81" style="fill:#f5f5f5"></rect><rect x="409.41" y="300.41" width="2.81" height="2.81" style="fill:#f5f5f5"></rect><rect x="409.41" y="305.12" width="2.81" height="2.81" style="fill:#f5f5f5"></rect><rect x="413.87" y="239.2" width="2.81" height="2.81" style="fill:#f5f5f5"></rect><rect x="413.87" y="243.91" width="2.81" height="2.81" style="fill:#f5f5f5"></rect><rect x="413.87" y="248.62" width="2.81" height="2.81" style="fill:#f5f5f5"></rect><rect x="413.87" y="253.33" width="2.81" height="2.81" style="fill:#f5f5f5"></rect><rect x="413.87" y="258.04" width="2.81" height="2.81" style="fill:#f5f5f5"></rect><rect x="413.87" y="262.75" width="2.81" height="2.81" style="fill:#f5f5f5"></rect><rect x="413.87" y="267.45" width="2.81" height="2.81" style="fill:#f5f5f5"></rect><rect x="413.87" y="272.16" width="2.81" height="2.81" style="fill:#f5f5f5"></rect><rect x="413.87" y="276.87" width="2.81" height="2.81" style="fill:#f5f5f5"></rect><rect x="413.87" y="281.58" width="2.81" height="2.81" style="fill:#f5f5f5"></rect><rect x="413.87" y="286.29" width="2.81" height="2.81" style="fill:#f5f5f5"></rect><rect x="413.87" y="291" width="2.81" height="2.81" style="fill:#f5f5f5"></rect><rect x="413.87" y="295.71" width="2.81" height="2.81" style="fill:#f5f5f5"></rect><rect x="418.33" y="239.2" width="2.81" height="2.81" style="fill:#f5f5f5"></rect><rect x="418.33" y="243.91" width="2.81" height="2.81" style="fill:#f5f5f5"></rect><rect x="418.33" y="248.62" width="2.81" height="2.81" style="fill:#f5f5f5"></rect><rect x="418.33" y="253.33" width="2.81" height="2.81" style="fill:#f5f5f5"></rect><rect x="418.33" y="258.04" width="2.81" height="2.81" style="fill:#f5f5f5"></rect><rect x="418.33" y="262.75" width="2.81" height="2.81" style="fill:#f5f5f5"></rect><rect x="418.33" y="267.45" width="2.81" height="2.81" style="fill:#f5f5f5"></rect><rect x="418.33" y="272.16" width="2.81" height="2.81" style="fill:#f5f5f5"></rect><rect x="418.33" y="276.87" width="2.81" height="2.81" style="fill:#f5f5f5"></rect><rect x="418.33" y="281.58" width="2.81" height="2.81" style="fill:#f5f5f5"></rect><rect x="418.33" y="286.29" width="2.81" height="2.81" style="fill:#f5f5f5"></rect><rect x="418.33" y="291" width="2.81" height="2.81" style="fill:#f5f5f5"></rect><rect x="90.56" y="273.57" width="2.81" height="2.81" style="fill:#f5f5f5"></rect><rect x="90.56" y="278.28" width="2.81" height="2.81" style="fill:#f5f5f5"></rect><rect x="90.56" y="282.98" width="2.81" height="2.81" style="fill:#f5f5f5"></rect><rect x="90.56" y="287.69" width="2.81" height="2.81" style="fill:#f5f5f5"></rect><rect x="90.56" y="292.4" width="2.81" height="2.81" style="fill:#f5f5f5"></rect><rect x="90.56" y="297.11" width="2.81" height="2.81" style="fill:#f5f5f5"></rect><rect x="90.56" y="301.82" width="2.81" height="2.81" style="fill:#f5f5f5"></rect><rect x="90.56" y="306.53" width="2.81" height="2.81" style="fill:#f5f5f5"></rect><rect x="90.56" y="311.23" width="2.81" height="2.81" style="fill:#f5f5f5"></rect><rect x="90.56" y="315.94" width="2.81" height="2.81" style="fill:#f5f5f5"></rect><rect x="90.56" y="320.65" width="2.81" height="2.81" style="fill:#f5f5f5"></rect><rect x="90.56" y="325.36" width="2.81" height="2.81" style="fill:#f5f5f5"></rect><rect x="90.56" y="330.07" width="2.81" height="2.81" style="fill:#f5f5f5"></rect><rect x="90.56" y="334.78" width="2.81" height="2.81" style="fill:#f5f5f5"></rect><rect x="90.56" y="339.48" width="2.81" height="2.81" style="fill:#f5f5f5"></rect><rect x="90.56" y="344.19" width="2.81" height="2.81" style="fill:#f5f5f5"></rect><rect x="90.56" y="348.9" width="2.81" height="2.81" style="fill:#f5f5f5"></rect><rect x="90.56" y="353.61" width="2.81" height="2.81" style="fill:#f5f5f5"></rect><rect x="90.56" y="358.32" width="2.81" height="2.81" style="fill:#f5f5f5"></rect><rect x="90.56" y="363.03" width="2.81" height="2.81" style="fill:#f5f5f5"></rect><rect x="95.02" y="273.57" width="2.81" height="2.81" style="fill:#f5f5f5"></rect><rect x="95.02" y="278.28" width="2.81" height="2.81" style="fill:#f5f5f5"></rect><rect x="95.02" y="282.98" width="2.81" height="2.81" style="fill:#f5f5f5"></rect><rect x="95.02" y="287.69" width="2.81" height="2.81" style="fill:#f5f5f5"></rect><rect x="95.02" y="292.4" width="2.81" height="2.81" style="fill:#f5f5f5"></rect><rect x="95.02" y="297.11" width="2.81" height="2.81" style="fill:#f5f5f5"></rect><rect x="95.02" y="301.82" width="2.81" height="2.81" style="fill:#f5f5f5"></rect><rect x="95.02" y="306.53" width="2.81" height="2.81" style="fill:#f5f5f5"></rect><rect x="95.02" y="311.23" width="2.81" height="2.81" style="fill:#f5f5f5"></rect><rect x="95.02" y="315.94" width="2.81" height="2.81" style="fill:#f5f5f5"></rect><rect x="95.02" y="320.65" width="2.81" height="2.81" style="fill:#f5f5f5"></rect><rect x="95.02" y="325.36" width="2.81" height="2.81" style="fill:#f5f5f5"></rect><rect x="95.02" y="330.07" width="2.81" height="2.81" style="fill:#f5f5f5"></rect><rect x="95.02" y="334.78" width="2.81" height="2.81" style="fill:#f5f5f5"></rect><rect x="95.02" y="339.48" width="2.81" height="2.81" style="fill:#f5f5f5"></rect><rect x="95.02" y="344.19" width="2.81" height="2.81" style="fill:#f5f5f5"></rect><rect x="95.02" y="348.9" width="2.81" height="2.81" style="fill:#f5f5f5"></rect><rect x="95.02" y="353.61" width="2.81" height="2.81" style="fill:#f5f5f5"></rect><rect x="99.48" y="273.57" width="2.81" height="2.81" style="fill:#f5f5f5"></rect><rect x="99.48" y="278.28" width="2.81" height="2.81" style="fill:#f5f5f5"></rect><rect x="99.48" y="282.98" width="2.81" height="2.81" style="fill:#f5f5f5"></rect><rect x="99.48" y="287.69" width="2.81" height="2.81" style="fill:#f5f5f5"></rect><rect x="99.48" y="292.4" width="2.81" height="2.81" style="fill:#f5f5f5"></rect><rect x="99.48" y="297.11" width="2.81" height="2.81" style="fill:#f5f5f5"></rect><rect x="99.48" y="301.82" width="2.81" height="2.81" style="fill:#f5f5f5"></rect><rect x="99.48" y="306.53" width="2.81" height="2.81" style="fill:#f5f5f5"></rect><rect x="99.48" y="311.23" width="2.81" height="2.81" style="fill:#f5f5f5"></rect><rect x="99.48" y="315.94" width="2.81" height="2.81" style="fill:#f5f5f5"></rect><rect x="99.48" y="320.65" width="2.81" height="2.81" style="fill:#f5f5f5"></rect><rect x="99.48" y="325.36" width="2.81" height="2.81" style="fill:#f5f5f5"></rect><rect x="99.48" y="330.07" width="2.81" height="2.81" style="fill:#f5f5f5"></rect><rect x="99.48" y="334.78" width="2.81" height="2.81" style="fill:#f5f5f5"></rect><rect x="99.48" y="339.48" width="2.81" height="2.81" style="fill:#f5f5f5"></rect><rect x="99.48" y="344.19" width="2.81" height="2.81" style="fill:#f5f5f5"></rect><rect x="99.48" y="348.9" width="2.81" height="2.81" style="fill:#f5f5f5"></rect><rect x="99.48" y="353.61" width="2.81" height="2.81" style="fill:#f5f5f5"></rect><rect x="73.87" y="307.93" width="2.81" height="2.81" style="fill:#f5f5f5"></rect><rect x="73.87" y="312.64" width="2.81" height="2.81" style="fill:#f5f5f5"></rect><rect x="73.87" y="317.35" width="2.81" height="2.81" style="fill:#f5f5f5"></rect><rect x="73.87" y="322.06" width="2.81" height="2.81" style="fill:#f5f5f5"></rect><rect x="73.87" y="326.76" width="2.81" height="2.81" style="fill:#f5f5f5"></rect><rect x="73.87" y="331.47" width="2.81" height="2.81" style="fill:#f5f5f5"></rect><rect x="73.87" y="336.18" width="2.81" height="2.81" style="fill:#f5f5f5"></rect><rect x="73.87" y="340.89" width="2.81" height="2.81" style="fill:#f5f5f5"></rect><rect x="73.87" y="345.6" width="2.81" height="2.81" style="fill:#f5f5f5"></rect><rect x="73.87" y="350.31" width="2.81" height="2.81" style="fill:#f5f5f5"></rect><rect x="73.87" y="355.01" width="2.81" height="2.81" style="fill:#f5f5f5"></rect><rect x="73.87" y="359.72" width="2.81" height="2.81" style="fill:#f5f5f5"></rect><rect x="73.87" y="364.43" width="2.81" height="2.81" style="fill:#f5f5f5"></rect><rect x="78.33" y="307.93" width="2.81" height="2.81" style="fill:#f5f5f5"></rect><rect x="78.33" y="312.64" width="2.81" height="2.81" style="fill:#f5f5f5"></rect><rect x="78.33" y="317.35" width="2.81" height="2.81" style="fill:#f5f5f5"></rect><rect x="78.33" y="322.06" width="2.81" height="2.81" style="fill:#f5f5f5"></rect><rect x="78.33" y="326.76" width="2.81" height="2.81" style="fill:#f5f5f5"></rect><rect x="78.33" y="331.47" width="2.81" height="2.81" style="fill:#f5f5f5"></rect><rect x="78.33" y="336.18" width="2.81" height="2.81" style="fill:#f5f5f5"></rect><rect x="78.33" y="340.89" width="2.81" height="2.81" style="fill:#f5f5f5"></rect><rect x="78.33" y="345.6" width="2.81" height="2.81" style="fill:#f5f5f5"></rect><rect x="78.33" y="350.31" width="2.81" height="2.81" style="fill:#f5f5f5"></rect><rect x="78.33" y="355.01" width="2.81" height="2.81" style="fill:#f5f5f5"></rect><rect x="78.33" y="359.72" width="2.81" height="2.81" style="fill:#f5f5f5"></rect><rect x="78.33" y="364.43" width="2.81" height="2.81" style="fill:#f5f5f5"></rect><rect x="82.79" y="307.93" width="2.81" height="2.81" style="fill:#f5f5f5"></rect><rect x="82.79" y="312.64" width="2.81" height="2.81" style="fill:#f5f5f5"></rect><rect x="82.79" y="317.35" width="2.81" height="2.81" style="fill:#f5f5f5"></rect><rect x="82.79" y="322.06" width="2.81" height="2.81" style="fill:#f5f5f5"></rect><rect x="82.79" y="326.76" width="2.81" height="2.81" style="fill:#f5f5f5"></rect><rect x="82.79" y="331.47" width="2.81" height="2.81" style="fill:#f5f5f5"></rect><rect x="82.79" y="336.18" width="2.81" height="2.81" style="fill:#f5f5f5"></rect><rect x="82.79" y="340.89" width="2.81" height="2.81" style="fill:#f5f5f5"></rect><rect x="82.79" y="345.6" width="2.81" height="2.81" style="fill:#f5f5f5"></rect><rect x="82.79" y="350.31" width="2.81" height="2.81" style="fill:#f5f5f5"></rect><rect x="82.79" y="355.01" width="2.81" height="2.81" style="fill:#f5f5f5"></rect><rect x="82.79" y="359.72" width="2.81" height="2.81" style="fill:#f5f5f5"></rect><rect x="82.79" y="364.43" width="2.81" height="2.81" style="fill:#f5f5f5"></rect><rect x="82.79" y="369.14" width="2.81" height="2.81" style="fill:#f5f5f5"></rect><rect x="107.57" y="309.33" width="2.81" height="2.81" style="fill:#f5f5f5"></rect><rect x="107.57" y="314.04" width="2.81" height="2.81" style="fill:#f5f5f5"></rect><rect x="107.57" y="318.75" width="2.81" height="2.81" style="fill:#f5f5f5"></rect><rect x="107.57" y="323.46" width="2.81" height="2.81" style="fill:#f5f5f5"></rect><rect x="107.57" y="328.17" width="2.81" height="2.81" style="fill:#f5f5f5"></rect><rect x="107.57" y="332.88" width="2.81" height="2.81" style="fill:#f5f5f5"></rect><rect x="107.57" y="337.59" width="2.81" height="2.81" style="fill:#f5f5f5"></rect><rect x="107.57" y="342.29" width="2.81" height="2.81" style="fill:#f5f5f5"></rect><rect x="107.57" y="347" width="2.81" height="2.81" style="fill:#f5f5f5"></rect><rect x="107.57" y="351.71" width="2.81" height="2.81" style="fill:#f5f5f5"></rect><rect x="107.57" y="365.84" width="2.81" height="2.81" style="fill:#f5f5f5"></rect><rect x="112.03" y="309.33" width="2.81" height="2.81" style="fill:#f5f5f5"></rect><rect x="112.03" y="314.04" width="2.81" height="2.81" style="fill:#f5f5f5"></rect><rect x="112.03" y="318.75" width="2.81" height="2.81" style="fill:#f5f5f5"></rect><rect x="112.03" y="323.46" width="2.81" height="2.81" style="fill:#f5f5f5"></rect><rect x="112.03" y="328.17" width="2.81" height="2.81" style="fill:#f5f5f5"></rect><rect x="112.03" y="332.88" width="2.81" height="2.81" style="fill:#f5f5f5"></rect><rect x="112.03" y="337.59" width="2.81" height="2.81" style="fill:#f5f5f5"></rect><rect x="112.03" y="342.29" width="2.81" height="2.81" style="fill:#f5f5f5"></rect><rect x="112.03" y="347" width="2.81" height="2.81" style="fill:#f5f5f5"></rect><rect x="112.03" y="361.13" width="2.81" height="2.81" style="fill:#f5f5f5"></rect><rect x="112.03" y="365.84" width="2.81" height="2.81" style="fill:#f5f5f5"></rect><rect x="116.49" y="309.33" width="2.81" height="2.81" style="fill:#f5f5f5"></rect><rect x="116.49" y="314.04" width="2.81" height="2.81" style="fill:#f5f5f5"></rect><rect x="116.49" y="318.75" width="2.81" height="2.81" style="fill:#f5f5f5"></rect><rect x="116.49" y="323.46" width="2.81" height="2.81" style="fill:#f5f5f5"></rect><rect x="116.49" y="328.17" width="2.81" height="2.81" style="fill:#f5f5f5"></rect><rect x="116.49" y="332.88" width="2.81" height="2.81" style="fill:#f5f5f5"></rect><rect x="116.49" y="337.59" width="2.81" height="2.81" style="fill:#f5f5f5"></rect><rect x="116.49" y="342.29" width="2.81" height="2.81" style="fill:#f5f5f5"></rect><rect x="116.49" y="356.42" width="2.81" height="2.81" style="fill:#f5f5f5"></rect><rect x="116.49" y="361.13" width="2.81" height="2.81" style="fill:#f5f5f5"></rect><rect x="116.49" y="365.84" width="2.81" height="2.81" style="fill:#f5f5f5"></rect><rect x="157.96" y="237.8" width="2.81" height="2.81" style="fill:#f5f5f5"></rect><rect x="157.96" y="242.51" width="2.81" height="2.81" style="fill:#f5f5f5"></rect><rect x="157.96" y="247.22" width="2.81" height="2.81" style="fill:#f5f5f5"></rect><rect x="157.96" y="251.93" width="2.81" height="2.81" style="fill:#f5f5f5"></rect><rect x="157.96" y="256.63" width="2.81" height="2.81" style="fill:#f5f5f5"></rect><rect x="157.96" y="261.34" width="2.81" height="2.81" style="fill:#f5f5f5"></rect><rect x="157.96" y="266.05" width="2.81" height="2.81" style="fill:#f5f5f5"></rect><rect x="157.96" y="270.76" width="2.81" height="2.81" style="fill:#f5f5f5"></rect><rect x="157.96" y="275.47" width="2.81" height="2.81" style="fill:#f5f5f5"></rect><rect x="157.96" y="280.18" width="2.81" height="2.81" style="fill:#f5f5f5"></rect><rect x="157.96" y="284.88" width="2.81" height="2.81" style="fill:#f5f5f5"></rect><rect x="157.96" y="289.59" width="2.81" height="2.81" style="fill:#f5f5f5"></rect><rect x="157.96" y="294.3" width="2.81" height="2.81" style="fill:#f5f5f5"></rect><rect x="157.96" y="299.01" width="2.81" height="2.81" style="fill:#f5f5f5"></rect><rect x="157.96" y="303.72" width="2.81" height="2.81" style="fill:#f5f5f5"></rect><rect x="157.96" y="308.43" width="2.81" height="2.81" style="fill:#f5f5f5"></rect><rect x="157.96" y="313.13" width="2.81" height="2.81" style="fill:#f5f5f5"></rect><rect x="157.96" y="322.55" width="2.81" height="2.81" style="fill:#f5f5f5"></rect><rect x="157.96" y="327.26" width="2.81" height="2.81" style="fill:#f5f5f5"></rect><rect x="157.96" y="331.97" width="2.81" height="2.81" style="fill:#f5f5f5"></rect><rect x="157.96" y="336.68" width="2.81" height="2.81" style="fill:#f5f5f5"></rect><rect x="157.96" y="341.38" width="2.81" height="2.81" style="fill:#f5f5f5"></rect><rect x="162.42" y="237.8" width="2.81" height="2.81" style="fill:#f5f5f5"></rect><rect x="162.42" y="242.51" width="2.81" height="2.81" style="fill:#f5f5f5"></rect><rect x="162.42" y="247.22" width="2.81" height="2.81" style="fill:#f5f5f5"></rect><rect x="162.42" y="251.93" width="2.81" height="2.81" style="fill:#f5f5f5"></rect><rect x="162.42" y="256.63" width="2.81" height="2.81" style="fill:#f5f5f5"></rect><rect x="162.42" y="261.34" width="2.81" height="2.81" style="fill:#f5f5f5"></rect><rect x="162.42" y="266.05" width="2.81" height="2.81" style="fill:#f5f5f5"></rect><rect x="162.42" y="270.76" width="2.81" height="2.81" style="fill:#f5f5f5"></rect><rect x="162.42" y="275.47" width="2.81" height="2.81" style="fill:#f5f5f5"></rect><rect x="162.42" y="280.18" width="2.81" height="2.81" style="fill:#f5f5f5"></rect><rect x="162.42" y="284.88" width="2.81" height="2.81" style="fill:#f5f5f5"></rect><rect x="162.42" y="289.59" width="2.81" height="2.81" style="fill:#f5f5f5"></rect><rect x="162.42" y="294.3" width="2.81" height="2.81" style="fill:#f5f5f5"></rect><rect x="162.42" y="299.01" width="2.81" height="2.81" style="fill:#f5f5f5"></rect><rect x="162.42" y="303.72" width="2.81" height="2.81" style="fill:#f5f5f5"></rect><rect x="162.42" y="308.43" width="2.81" height="2.81" style="fill:#f5f5f5"></rect><rect x="162.42" y="336.68" width="2.81" height="2.81" style="fill:#f5f5f5"></rect><rect x="162.42" y="341.38" width="2.81" height="2.81" style="fill:#f5f5f5"></rect><rect x="166.88" y="237.8" width="2.81" height="2.81" style="fill:#f5f5f5"></rect><rect x="166.88" y="242.51" width="2.81" height="2.81" style="fill:#f5f5f5"></rect><rect x="166.88" y="247.22" width="2.81" height="2.81" style="fill:#f5f5f5"></rect><rect x="166.88" y="251.93" width="2.81" height="2.81" style="fill:#f5f5f5"></rect><rect x="166.88" y="256.63" width="2.81" height="2.81" style="fill:#f5f5f5"></rect><rect x="166.88" y="261.34" width="2.81" height="2.81" style="fill:#f5f5f5"></rect><rect x="166.88" y="266.05" width="2.81" height="2.81" style="fill:#f5f5f5"></rect><rect x="166.88" y="270.76" width="2.81" height="2.81" style="fill:#f5f5f5"></rect><rect x="166.88" y="275.47" width="2.81" height="2.81" style="fill:#f5f5f5"></rect><rect x="166.88" y="280.18" width="2.81" height="2.81" style="fill:#f5f5f5"></rect><rect x="166.88" y="284.88" width="2.81" height="2.81" style="fill:#f5f5f5"></rect><rect x="166.88" y="289.59" width="2.81" height="2.81" style="fill:#f5f5f5"></rect><rect x="166.88" y="294.3" width="2.81" height="2.81" style="fill:#f5f5f5"></rect><rect x="166.88" y="299.01" width="2.81" height="2.81" style="fill:#f5f5f5"></rect><rect x="166.88" y="303.72" width="2.81" height="2.81" style="fill:#f5f5f5"></rect><rect x="166.88" y="308.43" width="2.81" height="2.81" style="fill:#f5f5f5"></rect><rect x="166.88" y="317.84" width="2.81" height="2.81" style="fill:#f5f5f5"></rect><rect x="166.88" y="322.55" width="2.81" height="2.81" style="fill:#f5f5f5"></rect><rect x="166.88" y="327.26" width="2.81" height="2.81" style="fill:#f5f5f5"></rect><rect x="166.88" y="331.97" width="2.81" height="2.81" style="fill:#f5f5f5"></rect><rect x="166.88" y="341.38" width="2.81" height="2.81" style="fill:#f5f5f5"></rect><rect x="141.77" y="297.11" width="2.81" height="2.81" style="fill:#f5f5f5"></rect><rect x="141.77" y="301.82" width="2.81" height="2.81" style="fill:#f5f5f5"></rect><rect x="141.77" y="306.53" width="2.81" height="2.81" style="fill:#f5f5f5"></rect><rect x="141.77" y="311.23" width="2.81" height="2.81" style="fill:#f5f5f5"></rect><rect x="141.77" y="315.94" width="2.81" height="2.81" style="fill:#f5f5f5"></rect><rect x="141.77" y="320.65" width="2.81" height="2.81" style="fill:#f5f5f5"></rect><rect x="141.77" y="325.36" width="2.81" height="2.81" style="fill:#f5f5f5"></rect><rect x="141.77" y="334.78" width="2.81" height="2.81" style="fill:#f5f5f5"></rect><rect x="141.77" y="339.48" width="2.81" height="2.81" style="fill:#f5f5f5"></rect><rect x="141.77" y="344.19" width="2.81" height="2.81" style="fill:#f5f5f5"></rect><rect x="141.77" y="348.9" width="2.81" height="2.81" style="fill:#f5f5f5"></rect><rect x="141.77" y="353.61" width="2.81" height="2.81" style="fill:#f5f5f5"></rect><rect x="141.77" y="358.32" width="2.81" height="2.81" style="fill:#f5f5f5"></rect><rect x="141.77" y="363.03" width="2.81" height="2.81" style="fill:#f5f5f5"></rect><rect x="141.77" y="367.74" width="2.81" height="2.81" style="fill:#f5f5f5"></rect><rect x="146.23" y="297.11" width="2.81" height="2.81" style="fill:#f5f5f5"></rect><rect x="146.23" y="301.82" width="2.81" height="2.81" style="fill:#f5f5f5"></rect><rect x="146.23" y="306.53" width="2.81" height="2.81" style="fill:#f5f5f5"></rect><rect x="146.23" y="311.23" width="2.81" height="2.81" style="fill:#f5f5f5"></rect><rect x="146.23" y="315.94" width="2.81" height="2.81" style="fill:#f5f5f5"></rect><rect x="146.23" y="320.65" width="2.81" height="2.81" style="fill:#f5f5f5"></rect><rect x="146.23" y="334.78" width="2.81" height="2.81" style="fill:#f5f5f5"></rect><rect x="146.23" y="339.48" width="2.81" height="2.81" style="fill:#f5f5f5"></rect><rect x="146.23" y="344.19" width="2.81" height="2.81" style="fill:#f5f5f5"></rect><rect x="146.23" y="348.9" width="2.81" height="2.81" style="fill:#f5f5f5"></rect><rect x="146.23" y="353.61" width="2.81" height="2.81" style="fill:#f5f5f5"></rect><rect x="146.23" y="358.32" width="2.81" height="2.81" style="fill:#f5f5f5"></rect><rect x="146.23" y="363.03" width="2.81" height="2.81" style="fill:#f5f5f5"></rect><rect x="146.23" y="367.74" width="2.81" height="2.81" style="fill:#f5f5f5"></rect><rect x="150.69" y="297.11" width="2.81" height="2.81" style="fill:#f5f5f5"></rect><rect x="150.69" y="301.82" width="2.81" height="2.81" style="fill:#f5f5f5"></rect><rect x="150.69" y="306.53" width="2.81" height="2.81" style="fill:#f5f5f5"></rect><rect x="150.69" y="311.23" width="2.81" height="2.81" style="fill:#f5f5f5"></rect><rect x="150.69" y="315.94" width="2.81" height="2.81" style="fill:#f5f5f5"></rect><rect x="150.69" y="320.65" width="2.81" height="2.81" style="fill:#f5f5f5"></rect><rect x="150.69" y="330.07" width="2.81" height="2.81" style="fill:#f5f5f5"></rect><rect x="150.69" y="334.78" width="2.81" height="2.81" style="fill:#f5f5f5"></rect><rect x="150.69" y="339.48" width="2.81" height="2.81" style="fill:#f5f5f5"></rect><rect x="150.69" y="344.19" width="2.81" height="2.81" style="fill:#f5f5f5"></rect><rect x="150.69" y="348.9" width="2.81" height="2.81" style="fill:#f5f5f5"></rect><rect x="150.69" y="353.61" width="2.81" height="2.81" style="fill:#f5f5f5"></rect><rect x="150.69" y="358.32" width="2.81" height="2.81" style="fill:#f5f5f5"></rect><rect x="150.69" y="363.03" width="2.81" height="2.81" style="fill:#f5f5f5"></rect><rect x="150.69" y="367.74" width="2.81" height="2.81" style="fill:#f5f5f5"></rect><rect x="244.69" y="270.76" width="2.81" height="2.81" style="fill:#f5f5f5"></rect><rect x="244.69" y="275.47" width="2.81" height="2.81" style="fill:#f5f5f5"></rect><rect x="244.69" y="280.18" width="2.81" height="2.81" style="fill:#f5f5f5"></rect><rect x="244.69" y="284.88" width="2.81" height="2.81" style="fill:#f5f5f5"></rect><rect x="244.69" y="289.59" width="2.81" height="2.81" style="fill:#f5f5f5"></rect><rect x="244.69" y="294.3" width="2.81" height="2.81" style="fill:#f5f5f5"></rect><rect x="244.69" y="299.01" width="2.81" height="2.81" style="fill:#f5f5f5"></rect><rect x="244.69" y="303.72" width="2.81" height="2.81" style="fill:#f5f5f5"></rect><rect x="244.69" y="308.43" width="2.81" height="2.81" style="fill:#f5f5f5"></rect><rect x="244.69" y="313.13" width="2.81" height="2.81" style="fill:#f5f5f5"></rect><rect x="244.69" y="317.84" width="2.81" height="2.81" style="fill:#f5f5f5"></rect><rect x="244.69" y="322.55" width="2.81" height="2.81" style="fill:#f5f5f5"></rect><rect x="244.69" y="327.26" width="2.81" height="2.81" style="fill:#f5f5f5"></rect><rect x="244.69" y="336.68" width="2.81" height="2.81" style="fill:#f5f5f5"></rect><rect x="244.69" y="341.38" width="2.81" height="2.81" style="fill:#f5f5f5"></rect><rect x="244.69" y="346.09" width="2.81" height="2.81" style="fill:#f5f5f5"></rect><rect x="244.69" y="350.8" width="2.81" height="2.81" style="fill:#f5f5f5"></rect><rect x="244.69" y="360.22" width="2.81" height="2.81" style="fill:#f5f5f5"></rect><rect x="244.69" y="364.93" width="2.81" height="2.81" style="fill:#f5f5f5"></rect><rect x="244.69" y="369.64" width="2.81" height="2.81" style="fill:#f5f5f5"></rect><rect x="249.16" y="270.76" width="2.81" height="2.81" style="fill:#f5f5f5"></rect><rect x="249.16" y="275.47" width="2.81" height="2.81" style="fill:#f5f5f5"></rect><rect x="249.16" y="280.18" width="2.81" height="2.81" style="fill:#f5f5f5"></rect><rect x="249.16" y="284.88" width="2.81" height="2.81" style="fill:#f5f5f5"></rect><rect x="249.16" y="289.59" width="2.81" height="2.81" style="fill:#f5f5f5"></rect><rect x="249.16" y="294.3" width="2.81" height="2.81" style="fill:#f5f5f5"></rect><rect x="249.16" y="299.01" width="2.81" height="2.81" style="fill:#f5f5f5"></rect><rect x="249.16" y="303.72" width="2.81" height="2.81" style="fill:#f5f5f5"></rect><rect x="249.16" y="308.43" width="2.81" height="2.81" style="fill:#f5f5f5"></rect><rect x="249.16" y="313.13" width="2.81" height="2.81" style="fill:#f5f5f5"></rect><rect x="249.16" y="317.84" width="2.81" height="2.81" style="fill:#f5f5f5"></rect><rect x="249.16" y="322.55" width="2.81" height="2.81" style="fill:#f5f5f5"></rect><rect x="249.16" y="327.26" width="2.81" height="2.81" style="fill:#f5f5f5"></rect><rect x="249.16" y="341.38" width="2.81" height="2.81" style="fill:#f5f5f5"></rect><rect x="249.16" y="346.09" width="2.81" height="2.81" style="fill:#f5f5f5"></rect><rect x="249.16" y="355.51" width="2.81" height="2.81" style="fill:#f5f5f5"></rect><rect x="249.16" y="360.22" width="2.81" height="2.81" style="fill:#f5f5f5"></rect><rect x="249.16" y="364.93" width="2.81" height="2.81" style="fill:#f5f5f5"></rect><rect x="249.16" y="369.64" width="2.81" height="2.81" style="fill:#f5f5f5"></rect><rect x="253.62" y="270.76" width="2.81" height="2.81" style="fill:#f5f5f5"></rect><rect x="253.62" y="275.47" width="2.81" height="2.81" style="fill:#f5f5f5"></rect><rect x="253.62" y="280.18" width="2.81" height="2.81" style="fill:#f5f5f5"></rect><rect x="253.62" y="284.88" width="2.81" height="2.81" style="fill:#f5f5f5"></rect><rect x="253.62" y="289.59" width="2.81" height="2.81" style="fill:#f5f5f5"></rect><rect x="253.62" y="294.3" width="2.81" height="2.81" style="fill:#f5f5f5"></rect><rect x="253.62" y="299.01" width="2.81" height="2.81" style="fill:#f5f5f5"></rect><rect x="253.62" y="303.72" width="2.81" height="2.81" style="fill:#f5f5f5"></rect><rect x="253.62" y="308.43" width="2.81" height="2.81" style="fill:#f5f5f5"></rect><rect x="253.62" y="313.13" width="2.81" height="2.81" style="fill:#f5f5f5"></rect><rect x="253.62" y="317.84" width="2.81" height="2.81" style="fill:#f5f5f5"></rect><rect x="253.62" y="322.55" width="2.81" height="2.81" style="fill:#f5f5f5"></rect><rect x="253.62" y="327.26" width="2.81" height="2.81" style="fill:#f5f5f5"></rect><rect x="253.62" y="331.97" width="2.81" height="2.81" style="fill:#f5f5f5"></rect><rect x="253.62" y="341.38" width="2.81" height="2.81" style="fill:#f5f5f5"></rect><rect x="253.62" y="350.8" width="2.81" height="2.81" style="fill:#f5f5f5"></rect><rect x="253.62" y="355.51" width="2.81" height="2.81" style="fill:#f5f5f5"></rect><rect x="253.62" y="360.22" width="2.81" height="2.81" style="fill:#f5f5f5"></rect><rect x="253.62" y="364.93" width="2.81" height="2.81" style="fill:#f5f5f5"></rect><rect x="253.62" y="369.64" width="2.81" height="2.81" style="fill:#f5f5f5"></rect><rect x="226.52" y="297.61" width="2.81" height="2.81" style="fill:#f5f5f5"></rect><rect x="226.52" y="302.31" width="2.81" height="2.81" style="fill:#f5f5f5"></rect><rect x="226.52" y="307.02" width="2.81" height="2.81" style="fill:#f5f5f5"></rect><rect x="226.52" y="311.73" width="2.81" height="2.81" style="fill:#f5f5f5"></rect><rect x="226.52" y="316.44" width="2.81" height="2.81" style="fill:#f5f5f5"></rect><rect x="226.52" y="321.15" width="2.81" height="2.81" style="fill:#f5f5f5"></rect><rect x="226.52" y="335.27" width="2.81" height="2.81" style="fill:#f5f5f5"></rect><rect x="226.52" y="339.98" width="2.81" height="2.81" style="fill:#f5f5f5"></rect><rect x="226.52" y="344.69" width="2.81" height="2.81" style="fill:#f5f5f5"></rect><rect x="226.52" y="349.4" width="2.81" height="2.81" style="fill:#f5f5f5"></rect><rect x="226.52" y="354.11" width="2.81" height="2.81" style="fill:#f5f5f5"></rect><rect x="226.52" y="358.81" width="2.81" height="2.81" style="fill:#f5f5f5"></rect><rect x="226.52" y="363.52" width="2.81" height="2.81" style="fill:#f5f5f5"></rect><rect x="230.98" y="297.61" width="2.81" height="2.81" style="fill:#f5f5f5"></rect><rect x="230.98" y="302.31" width="2.81" height="2.81" style="fill:#f5f5f5"></rect><rect x="230.98" y="307.02" width="2.81" height="2.81" style="fill:#f5f5f5"></rect><rect x="230.98" y="311.73" width="2.81" height="2.81" style="fill:#f5f5f5"></rect><rect x="230.98" y="316.44" width="2.81" height="2.81" style="fill:#f5f5f5"></rect><rect x="230.98" y="321.15" width="2.81" height="2.81" style="fill:#f5f5f5"></rect><rect x="230.98" y="335.27" width="2.81" height="2.81" style="fill:#f5f5f5"></rect><rect x="230.98" y="339.98" width="2.81" height="2.81" style="fill:#f5f5f5"></rect><rect x="230.98" y="344.69" width="2.81" height="2.81" style="fill:#f5f5f5"></rect><rect x="230.98" y="349.4" width="2.81" height="2.81" style="fill:#f5f5f5"></rect><rect x="230.98" y="354.11" width="2.81" height="2.81" style="fill:#f5f5f5"></rect><rect x="230.98" y="358.81" width="2.81" height="2.81" style="fill:#f5f5f5"></rect><rect x="230.98" y="368.23" width="2.81" height="2.81" style="fill:#f5f5f5"></rect><rect x="379.17" y="276.87" width="2.81" height="2.81" style="fill:#f5f5f5"></rect><rect x="379.17" y="281.58" width="2.81" height="2.81" style="fill:#f5f5f5"></rect><rect x="379.17" y="286.29" width="2.81" height="2.81" style="fill:#f5f5f5"></rect><rect x="379.17" y="291" width="2.81" height="2.81" style="fill:#f5f5f5"></rect><rect x="379.17" y="295.71" width="2.81" height="2.81" style="fill:#f5f5f5"></rect><rect x="379.17" y="300.41" width="2.81" height="2.81" style="fill:#f5f5f5"></rect><rect x="379.17" y="305.12" width="2.81" height="2.81" style="fill:#f5f5f5"></rect><rect x="379.17" y="309.83" width="2.81" height="2.81" style="fill:#f5f5f5"></rect><rect x="379.17" y="314.54" width="2.81" height="2.81" style="fill:#f5f5f5"></rect><rect x="379.17" y="319.25" width="2.81" height="2.81" style="fill:#f5f5f5"></rect><rect x="379.17" y="323.96" width="2.81" height="2.81" style="fill:#f5f5f5"></rect><rect x="379.17" y="333.37" width="2.81" height="2.81" style="fill:#f5f5f5"></rect><rect x="379.17" y="338.08" width="2.81" height="2.81" style="fill:#f5f5f5"></rect><rect x="379.17" y="342.79" width="2.81" height="2.81" style="fill:#f5f5f5"></rect><rect x="379.17" y="347.5" width="2.81" height="2.81" style="fill:#f5f5f5"></rect><rect x="379.17" y="352.21" width="2.81" height="2.81" style="fill:#f5f5f5"></rect><rect x="379.17" y="356.91" width="2.81" height="2.81" style="fill:#f5f5f5"></rect><rect x="379.17" y="361.62" width="2.81" height="2.81" style="fill:#f5f5f5"></rect><rect x="379.17" y="366.33" width="2.81" height="2.81" style="fill:#f5f5f5"></rect><rect x="383.63" y="276.87" width="2.81" height="2.81" style="fill:#f5f5f5"></rect><rect x="383.63" y="281.58" width="2.81" height="2.81" style="fill:#f5f5f5"></rect><rect x="383.63" y="286.29" width="2.81" height="2.81" style="fill:#f5f5f5"></rect><rect x="383.63" y="291" width="2.81" height="2.81" style="fill:#f5f5f5"></rect><rect x="383.63" y="295.71" width="2.81" height="2.81" style="fill:#f5f5f5"></rect><rect x="383.63" y="300.41" width="2.81" height="2.81" style="fill:#f5f5f5"></rect><rect x="383.63" y="305.12" width="2.81" height="2.81" style="fill:#f5f5f5"></rect><rect x="383.63" y="309.83" width="2.81" height="2.81" style="fill:#f5f5f5"></rect><rect x="383.63" y="314.54" width="2.81" height="2.81" style="fill:#f5f5f5"></rect><rect x="383.63" y="319.25" width="2.81" height="2.81" style="fill:#f5f5f5"></rect><rect x="383.63" y="323.96" width="2.81" height="2.81" style="fill:#f5f5f5"></rect><rect x="383.63" y="328.66" width="2.81" height="2.81" style="fill:#f5f5f5"></rect><rect x="383.63" y="333.37" width="2.81" height="2.81" style="fill:#f5f5f5"></rect><rect x="383.63" y="338.08" width="2.81" height="2.81" style="fill:#f5f5f5"></rect><rect x="383.63" y="342.79" width="2.81" height="2.81" style="fill:#f5f5f5"></rect><rect x="383.63" y="347.5" width="2.81" height="2.81" style="fill:#f5f5f5"></rect><rect x="383.63" y="352.21" width="2.81" height="2.81" style="fill:#f5f5f5"></rect><rect x="383.63" y="356.91" width="2.81" height="2.81" style="fill:#f5f5f5"></rect><rect x="383.63" y="361.62" width="2.81" height="2.81" style="fill:#f5f5f5"></rect><rect x="383.63" y="366.33" width="2.81" height="2.81" style="fill:#f5f5f5"></rect><rect x="357.2" y="295.21" width="2.81" height="2.81" style="fill:#f5f5f5"></rect><rect x="357.2" y="299.92" width="2.81" height="2.81" style="fill:#f5f5f5"></rect><rect x="357.2" y="304.63" width="2.81" height="2.81" style="fill:#f5f5f5"></rect><rect x="357.2" y="309.33" width="2.81" height="2.81" style="fill:#f5f5f5"></rect><rect x="357.2" y="314.04" width="2.81" height="2.81" style="fill:#f5f5f5"></rect><rect x="357.2" y="318.75" width="2.81" height="2.81" style="fill:#f5f5f5"></rect><rect x="357.2" y="323.46" width="2.81" height="2.81" style="fill:#f5f5f5"></rect><rect x="357.2" y="328.17" width="2.81" height="2.81" style="fill:#f5f5f5"></rect><rect x="357.2" y="332.88" width="2.81" height="2.81" style="fill:#f5f5f5"></rect><rect x="357.2" y="337.59" width="2.81" height="2.81" style="fill:#f5f5f5"></rect><rect x="361.66" y="295.21" width="2.81" height="2.81" style="fill:#f5f5f5"></rect><rect x="361.66" y="299.92" width="2.81" height="2.81" style="fill:#f5f5f5"></rect><rect x="361.66" y="304.63" width="2.81" height="2.81" style="fill:#f5f5f5"></rect><rect x="361.66" y="309.33" width="2.81" height="2.81" style="fill:#f5f5f5"></rect><rect x="361.66" y="314.04" width="2.81" height="2.81" style="fill:#f5f5f5"></rect><rect x="361.66" y="318.75" width="2.81" height="2.81" style="fill:#f5f5f5"></rect><rect x="361.66" y="323.46" width="2.81" height="2.81" style="fill:#f5f5f5"></rect><rect x="361.66" y="328.17" width="2.81" height="2.81" style="fill:#f5f5f5"></rect><rect x="361.66" y="332.88" width="2.81" height="2.81" style="fill:#f5f5f5"></rect></g><g id="freepik--Shadow--inject-2"><ellipse id="freepik--path--inject-2" cx="250" cy="416.24" rx="193.89" ry="11.32" style="fill:#f5f5f5"></ellipse></g><g id="freepik--trafic-cone-2--inject-2"><polygon points="419.25 408.95 406.09 343.39 401.04 343.39 387.88 408.95 378.2 414.87 378.2 416.63 428.61 416.63 428.61 414.87 419.25 408.95" style="fill:#407BFF"></polygon><rect x="378.2" y="414.87" width="50.41" height="2.21" style="fill:#fff;isolation:isolate;opacity:0.2"></rect><polygon points="406.09 343.39 401.04 343.39 387.72 408.76 419.09 408.76 406.09 343.39" style="fill:#fff;isolation:isolate;opacity:0.2"></polygon><polygon points="414.87 387.55 411.88 372.5 395.11 372.5 392.04 387.55 414.87 387.55" style="fill:#fff;isolation:isolate;opacity:0.6000000000000001"></polygon></g><g id="freepik--trafic-cone-1--inject-2"><polygon points="114.71 408.95 101.55 343.39 96.5 343.39 83.34 408.95 73.67 414.87 73.67 416.63 124.07 416.63 124.07 414.87 114.71 408.95" style="fill:#407BFF"></polygon><rect x="73.67" y="414.87" width="50.41" height="2.21" style="fill:#fff;isolation:isolate;opacity:0.2"></rect><polygon points="101.55 343.39 96.5 343.39 83.18 408.76 114.56 408.76 101.55 343.39" style="fill:#fff;isolation:isolate;opacity:0.2"></polygon><polygon points="110.33 387.55 107.34 372.5 90.57 372.5 87.51 387.55 110.33 387.55" style="fill:#fff;isolation:isolate;opacity:0.6000000000000001"></polygon></g><g id="freepik--character-3--inject-2"><path d="M362.17,409.06l8.41.14a.6.6,0,0,1,.58.48l1.27,6.18a1,1,0,0,1-.81,1.2.82.82,0,0,1-.22,0c-2.72-.09-4.7-.28-8.12-.34-2.1,0-8.45.09-11.35,0s-3.24-2.92-2.05-3.16c5.35-1.08,9.39-2.63,11.12-4.13A1.68,1.68,0,0,1,362.17,409.06Z" style="fill:#263238"></path><path d="M291.3,409.06l8.41.14a.6.6,0,0,1,.58.48l1.26,6.18a1,1,0,0,1-.8,1.2.9.9,0,0,1-.23,0c-2.72-.09-4.69-.28-8.11-.34-2.1,0-8.45.09-11.36,0s-3.23-2.92-2-3.16c5.35-1.08,9.39-2.63,11.12-4.13A1.68,1.68,0,0,1,291.3,409.06Z" style="fill:#263238"></path><path d="M372.46,409.49H361s-14.58-48.06-15.83-60.32-1.71-43-1.71-43v0l0,.06c-.49.66-4.82,6.74-9.8,13.81-6.51,9.25-14.15,20.19-15.76,22.87-4.72,7.9-16.28,66.54-16.28,66.54H290.13S293,357,298.89,339.7s31.3-55.08,32.4-57.11c1.41-2.59,4.87-10.81,4.87-10.81l34.31,4.77s.56,5.81.52,10.89c-.16,19.06-3.76,44.82-4.34,51.75C365.57,352.36,372.46,409.49,372.46,409.49Z" style="fill:#407BFF"></path><path d="M344.26,216.4s-10.27,18.31-8.09,55.38l34.3,4.77c1-5.23,1.23-31.38,9.77-55.49A91.23,91.23,0,0,0,369,218a126.33,126.33,0,0,0-14.58-2A65.28,65.28,0,0,0,344.26,216.4Z" style="fill:#263238"></path><path d="M336.16,271.78l34.31,4.77c.61-3.27.94-14.75,3.19-28.8.6-3.75,1.34-7.69,2.27-11.69a139.58,139.58,0,0,1,4.31-15A89.41,89.41,0,0,0,369,218a126.9,126.9,0,0,0-14.59-2,66.76,66.76,0,0,0-10.11.41S334,234.71,336.16,271.78Z" style="fill:#fff;opacity:0.2"></path><path d="M365.3,199.81c-.7,4.78-1.21,13.49,2.25,16.49-4.44,2.15-7.65,3.6-11.32,7.24-1.51-2.84-3.38-6.53-3.38-6.53,5.21-1.51,4.89-5.42,3.79-9.06Z" style="fill:#e4897b"></path><path d="M361.77,203.13,356.65,208a16.07,16.07,0,0,1,.58,2.59c2-.39,4.66-2.74,4.77-4.86A7,7,0,0,0,361.77,203.13Z" style="opacity:0.2"></path><path d="M372.46,409.49H361s-14.58-48.06-15.83-60.32-1.71-43-1.71-43v0l0,.06c-.49.66-4.82,6.74-9.8,13.81-6.51,9.25-14.15,20.19-15.76,22.87-4.72,7.9-16.28,66.54-16.28,66.54H290.13S293,357,298.89,339.7s31.3-55.08,32.4-57.11c1.41-2.59,4.87-10.81,4.87-10.81l34.31,4.77s.56,5.81.52,10.89c-.16,19.06-3.76,44.82-4.34,51.75C365.57,352.36,372.46,409.49,372.46,409.49Z" style="fill:#fff;opacity:0.5"></path><polygon points="373.24 218.98 370.39 215.42 361.16 217.2 356.47 222.57 355.88 216.37 354.15 214.29 350.36 215.93 350.36 219.81 353.06 218.94 355.39 224.35 362.77 221.32 364.41 223.41 373.24 218.98" style="fill:#263238"></polygon><polygon points="373.24 218.98 370.39 215.42 361.16 217.2 356.47 222.57 355.88 216.37 354.15 214.29 350.36 215.93 350.36 219.81 353.06 218.94 355.39 224.35 362.77 221.32 364.41 223.41 373.24 218.98" style="fill:#fff;opacity:0.30000000000000004"></polygon><path d="M348.45,225.58A227.14,227.14,0,0,1,320,223.64c-8.23-2.2-15.61-13.47-19.66-20.49l3.84-2.68c5,5.18,9.94,11.07,16.26,14.46a4.2,4.2,0,0,0,1.46.4c8.78.38,17.92.4,26.76.8l-.24,9.45Z" style="fill:#dc897c"></path><path d="M352.24,229.6c-5,3.68-24.45-1.8-24.45-1.8l2.42-11.92a64.4,64.4,0,0,1,16.52.3C355,217.64,357.77,225.51,352.24,229.6Z" style="fill:#263238"></path><path d="M352.24,229.6c-5,3.68-24.45-1.8-24.45-1.8l2.42-11.92a64.4,64.4,0,0,1,16.52.3C355,217.64,357.77,225.51,352.24,229.6Z" style="fill:#fff;opacity:0.2"></path><path d="M351.59,230c.41-2.78-1.39-5.21-6.8-6.54a50.61,50.61,0,0,0-16-.73l-1,5.07S345.84,233,351.59,230Z" style="opacity:0.1"></path><path d="M307,204.32l-3.77-8.44-6.75,4.43s1.8,6.26,7.16,6.75Z" style="fill:#e4897b"></path><polygon points="298.06 191.84 293.81 196.34 296.49 200.31 303.24 195.88 298.06 191.84" style="fill:#e4897b"></polygon><polygon points="355.39 224.35 354.5 217.87 350.36 219.81 353.06 218.94 355.39 224.35" style="opacity:0.1"></polygon><polygon points="355.39 224.35 362.23 219.32 364.41 223.41 362.77 221.32 355.39 224.35" style="opacity:0.1"></polygon><path d="M373.66,247.75c.6-3.75,1.34-7.69,2.27-11.69a7.19,7.19,0,0,0-4.42-2.58S370.57,242.56,373.66,247.75Z" style="opacity:0.1"></path><path d="M343.46,306.19v0l0,.06c-.49.66-4.82,6.74-9.8,13.81a19.57,19.57,0,0,1,9.65-19.45Z" style="opacity:0.2"></path><path d="M366.32,226.45l-10.58,2.72L352,214.63l-25.25,6.52L323,225.67l12.76-48.9-27.52,7.1-7,5.38-18.69,67.16,5.26,20.39,41.28-10.65,4.21,16.31,26-6.72,7-5.38-3.35-13,2.7-.69,7-5.38Zm-43.71,11.27-2.92.76,1.57-6Z" style="fill:#407BFF"></path><polygon points="326.61 179.14 308.27 183.87 308.27 183.87 326.61 179.14" style="opacity:0.2"></polygon><polygon points="330.5 235.69 326.74 221.15 323.03 225.67 328.73 203.83 321.11 233.03 321.26 232.47 322.61 237.72 319.69 238.48 319.69 238.48 330.5 235.69" style="opacity:0.2"></polygon><polygon points="340.33 277.08 336.12 260.77 294.84 271.42 289.57 251.03 308.27 183.87 301.25 189.25 282.56 256.41 287.82 276.8 329.1 266.15 333.31 282.46 359.35 275.74 366.37 270.36 366.37 270.36 340.33 277.08" style="opacity:0.2"></polygon><polygon points="372.74 251.32 362.16 254.05 364.97 264.93 363.02 257.39 365.72 256.7 372.74 251.32 369.53 238.88 372.74 251.32" style="opacity:0.2"></polygon><path d="M384.21,226.77c.9,4.18,1.58,8.28,2.1,12.5.54,5.39,1.34,11.32.11,17-3.4,10.39-18.39,4.33-25,1.07L363,253c4.76.81,9.51,1.78,14.08,1.31a3.38,3.38,0,0,0,1.51-.46c.08-.06,0-.08-.16,0a1.33,1.33,0,0,0-.34.46c0-.18.06-.6.08-1,0-8.19-1.9-16.59-3.25-24.68l9.26-1.9Z" style="fill:#dc897c"></path><path d="M380.24,221.06c9.21,3.87,8.62,25.84,8.62,25.84l-12.54.88a113.45,113.45,0,0,1-5.82-16.91C368.62,222.7,374.11,218.5,380.24,221.06Z" style="fill:#263238"></path><path d="M380.24,221.06c9.21,3.87,8.62,25.84,8.62,25.84l-12.54.88a113.45,113.45,0,0,1-5.82-16.91C368.62,222.7,374.11,218.5,380.24,221.06Z" style="fill:#fff;opacity:0.2"></path><path d="M365.6,253.6l-7.06-6-4.16,6.93s4.34,4.86,9.38,3Z" style="fill:#e4897b"></path><polygon points="352.12 246.24 350.25 252.14 354.38 254.56 358.54 247.63 352.12 246.24" style="fill:#e4897b"></polygon><path d="M350.61,184.52c-3.08,1.75-4.05,11,.22,12.55S356.45,181.22,350.61,184.52Z" style="fill:#263238"></path><path d="M366.18,193c-.81,6.47-.95,10.29-4.44,13.53a8.47,8.47,0,0,1-14.2-4.84c-1-5.87.46-15.46,7-17.86A8.57,8.57,0,0,1,366.18,193Z" style="fill:#e4897b"></path><path d="M359.47,185.76l-.09-5.59a7.32,7.32,0,0,0,4.54.2c6.44-2.07,11.81,1.73,9.05,5.66,3.21,1.09,1.84,5.47,0,8.35-2.58,4-5.5,6-7.76,4.49-2-.78-2.81-7.31-2.38-9.79C363.47,185.34,359.47,185.76,359.47,185.76Z" style="fill:#263238"></path><path d="M368.24,199.48a7,7,0,0,1-3.81,2.76c-2,.53-2.59-1.29-1.73-3.17.76-1.7,2.72-4,4.55-3.7S369.39,197.81,368.24,199.48Z" style="fill:#e4897b"></path><path d="M356.22,194.53c0,.53-.34.95-.68.94s-.6-.45-.57-1,.34-.95.69-.94S356.26,194,356.22,194.53Z" style="fill:#263238"></path><path d="M350.25,194.36c0,.53-.34.95-.68.94s-.6-.44-.57-1,.34-1,.69-.94S350.28,193.84,350.25,194.36Z" style="fill:#263238"></path><path d="M352.13,194.68a19.78,19.78,0,0,1-2.8,4.44,3,3,0,0,0,2.49.55Z" style="fill:#de5753"></path><path d="M358.19,192.66a.47.47,0,0,0,.15-.06.32.32,0,0,0,.08-.43,3,3,0,0,0-2.45-1.35.3.3,0,0,0-.3.32.32.32,0,0,0,.32.3,2.37,2.37,0,0,1,1.92,1.08A.29.29,0,0,0,358.19,192.66Z" style="fill:#263238"></path><path d="M347.81,192.24a.3.3,0,0,0,.25-.16,2.6,2.6,0,0,1,1.84-1.36.31.31,0,0,0,.28-.34.31.31,0,0,0-.34-.28h0a3.2,3.2,0,0,0-2.33,1.67.31.31,0,0,0,.13.42A.25.25,0,0,0,347.81,192.24Z" style="fill:#263238"></path><path d="M364.37,181.05s-5.81-8.16-14.05-5.15a6.61,6.61,0,0,1,2.45.65s-7.5.41-9.07,5.94l1.3-1s-1.27,4.58,1.34,7.11l.22-1.49s3.57,3.34,7.94,1.62l-1.68-.57s7.77-1.35,9.42-3.61A18.63,18.63,0,0,0,364.37,181.05Z" style="fill:#263238"></path><path d="M350.79,201.59a42.1,42.1,0,0,1,7.77-2c-.35,1.87-1.35,3.53-4.33,4.06A2.74,2.74,0,0,1,350.79,201.59Z" style="fill:#263238"></path><path d="M355.35,202.07a5.55,5.55,0,0,0-3.07,1.45,3.15,3.15,0,0,0,2,.18,5.45,5.45,0,0,0,3.07-1.45A3.15,3.15,0,0,0,355.35,202.07Z" style="fill:#a02724"></path><path d="M351,201.49a1.24,1.24,0,0,0,1.07.7,31.72,31.72,0,0,0,5.05-1.4,1.68,1.68,0,0,0,1.15-1.11A49.82,49.82,0,0,0,351,201.49Z" style="fill:#fff"></path></g><g id="freepik--character-2--inject-2"><path d="M248.67,417.08c5.07,0,5.75-.08,8.6-.18,2.44-.08,3,.22,5,.18,1.64,0,1.58-1.61,1.07-3.41-.25-.91-.64-2.83-1-4.29l-7.44-.54c-1.05,2-3.41,4.84-6.27,5.23S246.65,417.08,248.67,417.08Z" style="fill:#407BFF"></path><path d="M253.23,400a51.18,51.18,0,0,0,7.48-9.11c1.39-2,1.65-1.48,3.13-3.42a2.33,2.33,0,0,0-1.33-3.51,21.65,21.65,0,0,1-3.8-1.13l-5.07,3.73c.93,2.39-.29,9.12-2.9,11.89C248.87,400.44,251.75,401.36,253.23,400Z" style="fill:#407BFF"></path><path d="M236.21,277s-14.59,41.7-16.48,57C217.89,348.89,254,387.71,254,387.71c.88.66,4.5-3.84,4.7-5-9-17.36-14.57-43.08-23.59-49.38,21.63-32.07,24.65-52.58,24.65-52.58Z" style="fill:#263238"></path><path d="M274.43,206.68c5.05,7.6,4.47,11.33,2.86,26.32s3.73,21.29,1.14,28.19-21.16,6.32-29.43-7.5,2.14-43.52,10-46.42A26.49,26.49,0,0,1,274.43,206.68Z" style="fill:#263238"></path><path d="M246.46,291.67S245.27,307,245,317.43c2.86-5.09,5.18-9.73,7.06-13.88Z" style="opacity:0.2"></path><path d="M243.28,278.11s5.43,42,8.54,62.22c3.26,21.22,3.68,55.28,2.86,69.16,1.19.69,5.5.21,7.84-.52,0,0,14.09-45.53,3.74-66.55,6.7-49.11-3-61.14-3-61.14Z" style="fill:#263238"></path><path d="M246.86,248.85a58.3,58.3,0,0,1-15,12.53c-10.61,6.18-13-11.6-13.33-18.47a2.08,2.08,0,0,1,4.06-.67c1,3,2.06,6.06,3.26,8.83.77,1.64,1.6,3.63,2.8,4.53,0-.27-1.08-.34-1.27-.21l-.16,0,1.39-1a89.66,89.66,0,0,0,11.93-10.94c3.68-3.81,9.49,1.21,6.29,5.4Z" style="fill:#e9b376"></path><path d="M273.78,248.64c-7.58,16.38-9.85,24.92-10.51,32.64L236.21,277c.62-8.94,1.08-14.29,1.73-19.7a82.1,82.1,0,0,1,1.79-11c.73-3.85,3.77-7.83,7.51-9.14a7.5,7.5,0,0,1,2.69-.46c1.35,0,2.76.08,4.12.17a89.52,89.52,0,0,1,12.29,1.94c1.16.25,2.28.52,3.34.8.22.06.45.14.66.22A6.4,6.4,0,0,1,273.78,248.64Z" style="fill:#407BFF"></path><path d="M267.67,224.81c-1.7,3.79-4.16,10.83-2,13.87,0,0-3.65-1.15-12.38,2.5-1.78-3.66.09-4.44.09-4.44,4.66-.35,5.3-3.6,5.25-6.75Z" style="fill:#ebb376"></path><path d="M264,226.92,258.63,230a13.58,13.58,0,0,1-.13,2.22c1.74,0,4.48-1.44,5.07-3.15A5.86,5.86,0,0,0,264,226.92Z" style="opacity:0.2"></path><path d="M273.78,248.64q-1.27,2.73-2.34,5.19c-2.06,4.71-3.62,8.7-4.8,12.19a62.83,62.83,0,0,0-3.37,15.26L236.21,277c.62-8.94,1.08-14.29,1.73-19.7a82.1,82.1,0,0,1,1.79-11c.73-3.85,3.77-7.83,7.51-9.14a7.5,7.5,0,0,1,2.69-.46c1.35,0,2.76.08,4.12.17a89.52,89.52,0,0,1,12.29,1.94c1.16.25,2.28.52,3.34.8.22.06.45.14.66.22A6.4,6.4,0,0,1,273.78,248.64Z" style="fill:#fff;opacity:0.6000000000000001"></path><path d="M272.3,217.41c-2.21,6.2-3,8.86-7.14,11.34-6.21,3.74-13.36.11-13.05-6.51.28-6,3.85-15.09,10.77-16.16A8.43,8.43,0,0,1,272.3,217.41Z" style="fill:#ebb376"></path><path d="M265,203.14c-4.81,0-11.85,4.43-5.74,5.74-.06,2,3.54,2.13,6.19,1.2-.43,1.43,1.88,4.38,5.2,3.64-1.94.95-2.28,5.87,0,6.26s7,1.86,6.59-6.26S270.15,203.14,265,203.14Z" style="fill:#263238"></path><path d="M264,217.19c-.17.52-.58.89-.92.81s-.48-.58-.32-1.11.57-.89.91-.81S264.14,216.66,264,217.19Z" style="fill:#263238"></path><path d="M257.37,215.42c-.17.53-.57.89-.92.81s-.48-.57-.32-1.1.57-.89.91-.81S257.53,214.89,257.37,215.42Z" style="fill:#263238"></path><path d="M257.19,214.38l-1.15-.66S256.38,214.86,257.19,214.38Z" style="fill:#263238"></path><path d="M259,217.06a16.43,16.43,0,0,1-2.9,2.93,2.2,2.2,0,0,0,1.75.79Z" style="fill:#d58745"></path><path d="M260.3,223.44a5.92,5.92,0,0,1-.9-.13.15.15,0,0,1-.11-.2.17.17,0,0,1,.2-.11,4.53,4.53,0,0,0,3.88-.85.16.16,0,0,1,.23,0,.15.15,0,0,1,0,.22A4.8,4.8,0,0,1,260.3,223.44Z" style="fill:#263238"></path><path d="M272.89,223.08a5.28,5.28,0,0,1-3.7,1.6c-1.79,0-2.07-1.85-1.07-3.38s2.93-3.05,4.48-2.3S274.13,221.81,272.89,223.08Z" style="fill:#ebb376"></path><path d="M266,214.11a.32.32,0,0,1-.21-.13,2.34,2.34,0,0,0-1.94-1.12.31.31,0,0,1-.31-.31.36.36,0,0,1,.33-.33,2.93,2.93,0,0,1,2.47,1.39.32.32,0,0,1-.1.44A.36.36,0,0,1,266,214.11Z" style="fill:#263238"></path><path d="M255.71,211.3a.27.27,0,0,1-.21-.09.31.31,0,0,1,0-.45,3.33,3.33,0,0,1,2.83-1,.29.29,0,0,1,.22.37.34.34,0,0,1-.39.25,2.72,2.72,0,0,0-2.24.8A.36.36,0,0,1,255.71,211.3Z" style="fill:#263238"></path><path d="M263.79,216.15l-1.14-.66S263,216.63,263.79,216.15Z" style="fill:#263238"></path><path d="M251.5,237.36c-5.28-2-9.47.47-15.88,7.71.45,3.71,6.69,9.3,6.69,9.3S253,244.22,251.5,237.36Z" style="fill:#407BFF"></path><path d="M270.34,239.8a68.59,68.59,0,0,1-6.71,3h0c-.59.21-1.19.43-1.8.63-3.48,1.17-7.12,1.9-9.72,1.13a6.16,6.16,0,0,1-4.68-4.6,8.55,8.55,0,0,1-.18-2.87,7.5,7.5,0,0,1,2.69-.46l.91,0c.4,0,.78,0,1.18,0l2,.11a89.52,89.52,0,0,1,12.29,1.94l.26.06.91.2c.74.17,1.47.35,2.17.54C269.9,239.64,270.13,239.72,270.34,239.8Z" style="fill:#ebb376"></path><path d="M267.51,239a22.64,22.64,0,0,0-3.88,3.8h0c-.59.21-1.19.43-1.8.63a18.7,18.7,0,0,1,4.78-4.63Z" style="fill:#263238"></path><path d="M252,236.73a25,25,0,0,0-4.2,4.43,6.38,6.38,0,0,1-.4-1.16,18.73,18.73,0,0,1,3.42-3.3C251.24,236.7,251.62,236.72,252,236.73Z" style="fill:#263238"></path><path d="M267.51,239a22.64,22.64,0,0,0-3.88,3.8h0c-.59.21-1.19.43-1.8.63a18.7,18.7,0,0,1,4.78-4.63Z" style="fill:#fff;opacity:0.2"></path><path d="M252,236.73a25,25,0,0,0-4.2,4.43,6.38,6.38,0,0,1-.4-1.16,18.73,18.73,0,0,1,3.42-3.3C251.24,236.7,251.62,236.72,252,236.73Z" style="fill:#fff;opacity:0.2"></path><path d="M271.44,253.83c-2.06,4.71-3.62,8.7-4.8,12.19-9.87-6.11-1.72-16.4-1.72-16.4A15.79,15.79,0,0,1,271.44,253.83Z" style="opacity:0.1"></path><path d="M222.08,209.57c-23.16-1.33-40.76,16.51-42.61,49a85.13,85.13,0,0,0-.07,8.87c-1,31.11,14.26,49.92,36.85,51.21,23.16,1.32,40.76-16.52,42.61-49a85.15,85.15,0,0,0,.07-8.87C259.92,229.67,244.67,210.86,222.08,209.57Zm7.08,51.86c-1.07,18.92-5.67,24.56-11.43,24.24-4.67-.27-8.13-4.36-8.69-16,0-.92.07-1.87.12-2.86,1.08-18.92,5.67-24.56,11.43-24.23,4.68.26,8.14,4.35,8.7,16C229.26,259.5,229.22,260.44,229.16,261.43Z" style="fill:#407BFF"></path><path d="M258.84,253.36c0-.47,0-.94-.09-1.41C258.79,252.42,258.81,252.89,258.84,253.36Z" style="opacity:0.2"></path><path d="M179.36,266.37c0-.44,0-.88,0-1.32C179.33,265.49,179.35,265.93,179.36,266.37Z" style="opacity:0.2"></path><path d="M179.47,258.75c1.85-32.52,19.45-50.36,42.61-49,19.5,1.11,33.54,15.27,36.38,39.14-2.8-24-16.84-38.18-36.38-39.29-23.16-1.33-40.76,16.51-42.61,49-.06,1-.1,2-.12,3C179.37,260.68,179.41,259.72,179.47,258.75Z" style="opacity:0.2"></path><path d="M258.94,255.59c0-.23,0-.45,0-.68C258.93,255.13,258.93,255.36,258.94,255.59Z" style="opacity:0.2"></path><path d="M258.68,251.11c-.06-.69-.12-1.38-.2-2.05C258.56,249.73,258.62,250.42,258.68,251.11Z" style="opacity:0.2"></path><path d="M179.32,264.13c0-.71,0-1.42,0-2.14C179.33,262.71,179.32,263.42,179.32,264.13Z" style="opacity:0.2"></path><path d="M258.84,263.27c-1.86,32.52-19.46,50.35-42.62,49-21-1.19-35.63-17.49-36.83-44.72-.95,31,14.29,49.81,36.86,51.1,23.16,1.32,40.76-16.52,42.61-49a83.42,83.42,0,0,0,.07-8.78Q258.9,262.06,258.84,263.27Z" style="opacity:0.2"></path><path d="M209.14,260.44c-1.08,18.92,2.84,25.05,8.6,25.37s10.35-5.31,11.43-24.23-2.85-25-8.6-25.38S210.21,241.52,209.14,260.44Zm20.15-1.87c0,.93-.07,1.87-.13,2.86-1.07,18.92-5.67,24.56-11.43,24.24-4.67-.27-8.13-4.36-8.69-16,0-.92.07-1.87.12-2.86,1.08-18.92,5.67-24.56,11.43-24.23C225.27,242.84,228.73,246.93,229.29,258.57Z" style="opacity:0.2"></path><path d="M214.41,240l.28,1.76a2.07,2.07,0,0,0,1.13,1.54l2.81,1.4a3.84,3.84,0,0,0,3.55-.06l.69-.36c-.27-3-2.73-6-2.73-6l-.61-.94a1.74,1.74,0,0,0-2.4-.56L215.27,238A2,2,0,0,0,214.41,240Z" style="fill:#ebb376"></path><path d="M236.12,258.38l2-.44a2.38,2.38,0,0,1,2.11.55l2.67,2.41a4.41,4.41,0,0,1,1.44,3.8l-.1.89c-3.26,1-7.49-.4-7.49-.4l-1.25-.26a2,2,0,0,1-1.61-2.31l.47-2.48A2.3,2.3,0,0,1,236.12,258.38Z" style="fill:#ebb376"></path><path d="M274.19,253.52a55.69,55.69,0,0,1-10,21.31c-6.5,6.9-19.72-5.82-24.4-10.52a2.07,2.07,0,0,1,2.6-3.17c3.16,2,6.47,4.06,9.77,5.79,2.21,1.12,4.54,2.35,6.79,2.6.73,0,.26-.18-.2.21l-.54.58a44.85,44.85,0,0,0,2.48-4.29,82.8,82.8,0,0,0,5.42-14.56,4.15,4.15,0,0,1,8,2.05Z" style="fill:#e9b376"></path><path d="M271.77,240.54c4.61,3.27,4.83,8.15,2.34,17.5-3.34,1.67-11.44-.44-11.44-.44S265.22,243.08,271.77,240.54Z" style="fill:#407BFF"></path><path d="M271.77,240.54c4.61,3.27,4.83,8.15,2.34,17.5-3.34,1.67-11.44-.44-11.44-.44S265.22,243.08,271.77,240.54Z" style="fill:#fff;opacity:0.6000000000000001"></path></g><g id="freepik--character-1--inject-2"><polygon points="184.31 402.1 190.52 399.85 187.1 384.88 180.89 387.13 184.31 402.1" style="fill:#ffc3bd"></polygon><polygon points="135.32 410.35 141.91 410.35 143.79 395.08 137.19 395.08 135.32 410.35" style="fill:#ffc3bd"></polygon><path d="M142.78,409.59h-8a.57.57,0,0,0-.56.45l-1.36,5.86a1,1,0,0,0,1,1.17c2.59-.05,4.47-.2,7.73-.2,2,0,8.05.21,10.81.21s3.16-2.73,2-3c-5.07-1.11-8.88-2.65-10.49-4.11A1.61,1.61,0,0,0,142.78,409.59Z" style="fill:#263238"></path><path d="M190.75,398.58l-7.06,1.52a.58.58,0,0,0-.46.55l-.1,6a1,1,0,0,0,1.16.94c2.54-.59,6.19-1.52,9.39-2.21,3.74-.8,6.06-1.56,10.44-2.5,2.65-.57,2.84-3.4,1.68-3.4-5.28,0-8.48,1-13.39-.74A3.06,3.06,0,0,0,190.75,398.58Z" style="fill:#263238"></path><polygon points="187.1 384.88 188.86 392.6 182.65 394.85 180.89 387.14 187.1 384.88" style="opacity:0.2"></polygon><polygon points="137.19 395.09 143.79 395.09 142.82 402.96 136.22 402.96 137.19 395.09" style="opacity:0.2"></polygon><path d="M190.68,390.32l-10.51,3.81S172,358,167.58,337.9a213.17,213.17,0,0,0-7.16-23.42c-4-11.26-8.75-23.38-12.6-32.85-4.06-10-7.08-17-7.08-17l22.74-4.6s17.35,49.92,21.25,69.66C188.78,350.18,190.68,390.32,190.68,390.32Z" style="fill:#263238"></path><g style="opacity:0.30000000000000004"><path d="M190.68,390.32l-10.51,3.81S172,358,167.58,337.9a213.17,213.17,0,0,0-7.16-23.42c-4-11.26-8.75-23.38-12.6-32.85-4.06-10-7.08-17-7.08-17l22.74-4.6s17.35,49.92,21.25,69.66C188.78,350.18,190.68,390.32,190.68,390.32Z" style="fill:#fff"></path></g><path d="M160.42,314.48c-4-11.26-8.75-23.38-12.6-32.85l1.76-5.44C156.09,282.21,160.15,303,160.42,314.48Z" style="opacity:0.2"></path><path d="M151.21,262.49s4.06,56.93,4.31,76.27c.27,21.18-9.64,62.67-9.64,62.67H133.81S138.63,364,137,343c-1.8-23.46-8.13-76-8.13-76Z" style="fill:#263238"></path><g style="opacity:0.30000000000000004"><path d="M151.21,262.49s4.06,56.93,4.31,76.27c.27,21.18-9.64,62.67-9.64,62.67H133.81S138.63,364,137,343c-1.8-23.46-8.13-76-8.13-76Z" style="fill:#fff"></path></g><polygon points="147.32 401.69 133.11 401.69 133.15 397.44 147.99 396.59 147.32 401.69" style="fill:#263238"></polygon><polygon points="192.09 390.18 179.49 394.56 178.12 390.49 191.9 385.48 192.09 390.18" style="fill:#263238"></polygon><path d="M143.23,410.5a.15.15,0,0,1-.12-.12.16.16,0,0,1,.07-.16c.24-.15,2.39-1.46,3.11-1.08a.47.47,0,0,1,.26.44.93.93,0,0,1-.33.82,2,2,0,0,1-1.27.34A7.67,7.67,0,0,1,143.23,410.5Zm.45-.22a3.11,3.11,0,0,0,2.34-.12.64.64,0,0,0,.22-.56c0-.13-.05-.17-.1-.19a.54.54,0,0,0-.2,0A6.44,6.44,0,0,0,143.68,410.28Z" style="fill:#407BFF"></path><path d="M143.18,410.48a.13.13,0,0,1-.07-.14c0-.08.18-2,1-2.61a.86.86,0,0,1,.66-.2.5.5,0,0,1,.5.41c.13.73-1.21,2.18-1.89,2.55l-.08,0A.11.11,0,0,1,143.18,410.48Zm1.08-2.51a3.81,3.81,0,0,0-.8,2.07c.68-.52,1.54-1.61,1.46-2,0,0,0-.14-.23-.16h-.07A.56.56,0,0,0,144.26,408Z" style="fill:#407BFF"></path><path d="M203.29,179.55l5.28-5.68,3.16,8s-5,4.78-7.37,2.1Z" style="fill:#ffc3bd"></path><polygon points="215.97 171.78 216.35 179.58 211.73 181.87 208.57 173.87 215.97 171.78" style="fill:#ffc3bd"></polygon><path d="M191.44,399.24a.17.17,0,0,1,.05-.18c.26-.21,2.58-2.09,3.46-1.82a.51.51,0,0,1,.34.36.87.87,0,0,1-.14.8c-.58.78-2.48.92-3.56.94h0A.17.17,0,0,1,191.44,399.24Zm.61-.23c1.48-.07,2.53-.36,2.85-.79a.57.57,0,0,0,.09-.54c0-.07-.06-.12-.13-.14h-.06C194.27,397.47,193,398.3,192.05,399Z" style="fill:#407BFF"></path><path d="M116.06,211.18c-5.69,2.24-23.68,17-24.35,23.43s20.34,13.63,20.34,13.63l5.1-4.33s-12.79-9.83-12.79-11,16-9.62,16-9.62a12.67,12.67,0,0,0,.41-8.66C119.71,211.66,116.06,211.18,116.06,211.18Z" style="fill:#263238"></path><path d="M152.34,204.16c8.51-.65,23.93-5.51,28.07-8.16s22.88-17.16,22.88-17.16l5.34,6.15s-14.11,16.39-22.2,21.69-30.1,13.65-30.1,13.65Z" style="fill:#263238"></path><path d="M191.52,399.32a.16.16,0,0,1-.09-.12,4.48,4.48,0,0,1,.49-2.7,1.14,1.14,0,0,1,.8-.44c.43-.05.59.14.66.3.26.71-1,2.43-1.7,2.95l-.11,0Zm1.23-2.95a.78.78,0,0,0-.58.33,3.67,3.67,0,0,0-.45,2.17c.7-.65,1.52-2,1.36-2.39,0,0,0-.1-.17-.11Z" style="fill:#407BFF"></path><path d="M116.06,211.18c1,2.44,1.94,4.91,2.78,7.38q1.39,4.08,2.52,8.12c.52,1.84,1,3.68,1.44,5.48.16.61.3,1.23.44,1.83.35,1.45.66,2.88,1,4.29s.55,2.67.8,4,.53,2.75.76,4.07.44,2.59.64,3.82.42,2.69.6,4c.23,1.58.43,3.06.61,4.42.56,4.09.94,7.08,1.28,8.51l34.59-7c0-2.71,0-5.32-.13-7.84-.06-1.68-.14-3.31-.26-4.9-.06-1.05-.14-2.08-.23-3.1-.13-1.54-.28-3-.44-4.5-.2-1.63-.41-3.2-.64-4.72q-.63-4.2-1.4-7.81c-.63-2.92-1.3-5.56-2-7.92-.86-3-1.74-5.48-2.54-7.57a48.3,48.3,0,0,0-3.52-7.49,67.47,67.47,0,0,0-8.47.06c-.6,0-1.2.1-1.81.17a128.25,128.25,0,0,0-14.71,3c-.91.23-1.85.5-2.75.77A89.2,89.2,0,0,0,116.06,211.18Z" style="fill:#263238"></path><path d="M125,190.46c2,4.56,4.77,13,1.91,16.87a16.66,16.66,0,0,0,13,2.27c4.31-.89,3.93-3.79,2.64-5.18-5.86-.22-6.54-4.17-6.33-8Z" style="fill:#ffc3bd"></path><path d="M126.75,193l9.44,3.35a14.26,14.26,0,0,0,.06,2.7C129.48,200.87,126.67,193.56,126.75,193Z" style="opacity:0.2"></path><path d="M148.14,301.91l11.37-23-1.9-7.68-4.29-2.11,4-8.05-1.91-7.68-16.11-7.95,31-23.37-1.9-7.67L145.31,203l-55,40.16L81,262l1.91,7.68,30,14.81-4.78,9.68,1.9,7.68,21.81,10.77,7.46-15.11ZM127.6,256.38l-1.75-.86,3.46-2.61Z" style="fill:#407BFF"></path><polygon points="153.32 269.08 157.29 261.03 155.4 253.35 139.28 245.4 170.26 222.03 168.36 214.35 145.31 202.98 90.31 243.14 90.25 243.25 145.24 203.1 168.29 214.48 118.47 252.04 127.52 256.51 127.59 256.38 125.85 255.52 129.29 252.93 134.17 243.04 155.32 253.48 148.67 266.95 157.53 271.32 146.16 294.36 137.3 289.98 129.84 305.09 108.15 294.38 110.01 301.87 131.82 312.64 139.28 297.53 148.14 301.9 159.51 278.87 157.61 271.19 153.32 269.08" style="opacity:0.2"></polygon><polygon points="115.49 279.22 81.03 262.21 82.89 269.7 112.88 284.5 115.49 279.22" style="opacity:0.2"></polygon><path d="M115.79,243.91l7.35,2.48-6,6.17s-6.43-2.6-5-5.85Z" style="fill:#ffc3bd"></path><polygon points="128.09 252.26 121.13 255.82 117.15 252.56 123.14 246.38 128.09 252.26" style="fill:#ffc3bd"></polygon><path d="M134.36,169.29c5.78.24,8,12.32,6.22,14.29C137.19,187.25,127.2,169,134.36,169.29Z" style="fill:#263238"></path><path d="M121.83,184.9c2.87,6.42,4.23,10.32,8.81,12.45,6.9,3.2,13.88-2.86,13-10-.81-6.43-5.37-15.85-12.79-16.05A9.59,9.59,0,0,0,121.83,184.9Z" style="fill:#ffc3bd"></path><path d="M115,182.75c2.12,4.22,9.29,11.46,11.75,10.29,2.66-1.28,1.23-7.55-2.17-12.45Z" style="fill:#263238"></path><path d="M121.58,193.26a6.65,6.65,0,0,0,4.94,1.29c2.32-.33,2.54-2.63,1.11-4.33-1.3-1.53-4.06-3.19-6-2A3,3,0,0,0,121.58,193.26Z" style="fill:#ffc3bd"></path><path d="M132.49,183c.2.54.64.86,1,.73s.47-.67.27-1.21-.64-.86-1-.73S132.29,182.46,132.49,183Z" style="fill:#263238"></path><path d="M138.53,180.72c.21.53.65.86,1,.73s.47-.67.27-1.21-.65-.86-1-.73S138.33,180.18,138.53,180.72Z" style="fill:#263238"></path><path d="M136.71,181.71a20.35,20.35,0,0,0,4.28,3.61,3.31,3.31,0,0,1-2.38,1.44Z" style="fill:#ed847e"></path><path d="M137.63,188.82a.18.18,0,0,0,.08-.21.17.17,0,0,0-.22-.1,4.51,4.51,0,0,1-4.08-.36.16.16,0,0,0-.23,0,.16.16,0,0,0,0,.23,4.8,4.8,0,0,0,4.4.41Z" style="fill:#263238"></path><path d="M130,181.71a.34.34,0,0,0,.17-.2,2.68,2.68,0,0,1,1.62-1.81.34.34,0,0,0,.22-.42.33.33,0,0,0-.42-.22,3.35,3.35,0,0,0-2.07,2.26.33.33,0,0,0,.23.41A.31.31,0,0,0,130,181.71Z" style="fill:#263238"></path><path d="M140.44,177.63l.09-.07a.33.33,0,0,0,0-.47,3.3,3.3,0,0,0-2.92-.92.33.33,0,0,0-.25.4.35.35,0,0,0,.41.25,2.66,2.66,0,0,1,2.3.76A.35.35,0,0,0,140.44,177.63Z" style="fill:#263238"></path><path d="M119.8,189a14,14,0,0,1-6.25-9.29c-1.12-6.4,10.42-12.79,16.85-13.29s5.41,6.54,5.41,6.54-8.33,3-11.2,4.79,0,2.85,0,2.85Z" style="fill:#263238"></path><path d="M104.36,233c0-.07.06-.16.17-.28H92.31a6.19,6.19,0,0,0-.6,1.94c-.66,6.4,20.34,13.63,20.34,13.63l5.1-4.33S104.36,234.08,104.36,233Z" style="fill:#263238"></path></g><g id="freepik--Text--inject-2"><path d="M262.77,168.05l-50.65,9.64a12.26,12.26,0,0,1-14.34-9.75h0a12.25,12.25,0,0,1,9.75-14.34L258.19,144a12.27,12.27,0,0,1,14.34,9.76h0A12.27,12.27,0,0,1,262.77,168.05Z" style="fill:#407BFF"></path><path d="M262.77,168.05l-50.65,9.64a12.26,12.26,0,0,1-14.34-9.75h0a12.25,12.25,0,0,1,9.75-14.34L258.19,144a12.27,12.27,0,0,1,14.34,9.76h0A12.27,12.27,0,0,1,262.77,168.05Z" style="fill:#fff;opacity:0.6000000000000001"></path><path d="M220.83,166.49l.24,1.29L214.89,169l-1.57-8.24,6-1.15.24,1.29-4.49.85.41,2.14,4-.75.24,1.26-4,.75.43,2.28Z"></path><path d="M228.18,166.42,226,164.33l-.32.07-1.86.36.46,2.4-1.53.29-1.57-8.25,3.39-.64c2.17-.42,3.72.44,4.07,2.26a2.69,2.69,0,0,1-1.26,2.94l2.41,2.35Zm-3.4-6.55-1.79.34.63,3.28,1.79-.34c1.34-.25,1.92-1,1.73-2S226.13,159.61,224.78,159.87Z"></path><path d="M236.8,164.78l-2.15-2.09-.31.07-1.86.35.45,2.41-1.53.29-1.57-8.25,3.4-.64c2.16-.42,3.72.44,4.07,2.26a2.71,2.71,0,0,1-1.26,2.94l2.41,2.35Zm-3.4-6.55-1.79.34.63,3.28,1.79-.34c1.34-.25,1.92-1,1.72-2S234.75,158,233.4,158.23Z"></path><path d="M238.65,160.16a4.52,4.52,0,1,1,5.24,3.39A4.29,4.29,0,0,1,238.65,160.16Zm7.34-1.4a3,3,0,1,0-2.35,3.45A2.88,2.88,0,0,0,246,158.76Z"></path><path d="M255.34,161.25l-2.14-2.09-.32.07-1.86.35.46,2.41-1.53.29L248.38,154l3.39-.64c2.17-.42,3.72.44,4.07,2.26a2.69,2.69,0,0,1-1.26,2.94l2.41,2.35Zm-3.4-6.55-1.79.34.63,3.28,1.79-.34c1.34-.25,1.92-1,1.72-2S253.29,154.44,251.94,154.7Z"></path></g></svg>