<svg id="svg" xmlns="http://www.w3.org/2000/svg" xmlns:xlink="http://www.w3.org/1999/xlink" width="400" height="225" viewBox="0, 0, 400,225"><g id="svgg"><path id="path0" d="M30.729 74.083 C 21.171 74.511,15.555 78.614,14.012 86.296 C 13.602 88.335,13.542 89.438,13.542 94.907 L 13.542 100.104 8.490 100.104 L 3.438 100.104 3.429 100.339 C 3.424 100.467,3.412 103.210,3.403 106.432 L 3.385 112.292 8.464 112.292 L 13.542 112.292 13.542 130.885 L 13.542 149.479 20.990 149.479 L 28.438 149.479 28.438 130.885 L 28.438 112.292 34.043 112.292 L 39.649 112.292 40.147 106.693 C 40.421 103.613,40.671 100.871,40.702 100.599 L 40.758 100.104 34.591 100.104 L 28.423 100.104 28.465 95.182 C 28.510 89.870,28.516 89.809,29.105 88.604 C 30.104 86.562,31.693 86.049,37.267 85.967 L 40.939 85.913 40.912 80.274 L 40.885 74.635 39.792 74.513 C 36.064 74.095,33.343 73.966,30.729 74.083 M197.188 74.863 C 193.148 75.219,189.809 75.512,189.766 75.515 C 189.723 75.518,189.688 92.161,189.688 112.500 L 189.688 149.479 196.719 149.479 L 203.750 149.479 203.750 145.921 L 203.750 142.363 204.266 143.221 C 206.286 146.583,209.441 148.878,213.438 149.893 C 216.117 150.574,220.039 150.634,223.073 150.041 C 233.332 148.035,238.573 139.374,238.573 124.427 C 238.573 109.748,232.470 100.791,221.510 99.384 C 214.284 98.456,207.215 101.338,204.948 106.138 L 204.635 106.800 204.583 90.508 L 204.531 74.216 197.188 74.863 M358.750 74.901 C 355.055 75.234,351.973 75.509,351.901 75.513 C 351.797 75.519,351.771 82.990,351.771 112.500 L 351.771 149.479 359.271 149.479 L 366.771 149.479 366.772 137.526 L 366.773 125.573 367.178 126.198 C 367.401 126.542,368.416 128.135,369.432 129.740 C 370.449 131.344,371.875 133.594,372.601 134.740 C 373.327 135.885,374.650 137.971,375.541 139.375 C 378.261 143.663,380.827 147.715,381.391 148.615 L 381.927 149.469 389.818 149.474 C 394.158 149.477,397.708 149.454,397.708 149.423 C 397.708 149.392,394.134 143.809,389.766 137.016 C 385.397 130.224,381.831 124.636,381.840 124.599 C 381.850 124.562,385.266 119.117,389.432 112.500 C 393.597 105.883,397.028 100.386,397.057 100.286 C 397.105 100.112,396.702 100.104,389.260 100.130 L 381.411 100.156 374.117 111.831 L 366.823 123.506 366.797 98.888 L 366.770 74.271 366.120 74.283 C 365.762 74.290,362.445 74.568,358.750 74.901 M59.705 99.275 C 48.015 100.400,41.749 109.216,41.757 124.530 C 41.765 140.722,48.142 149.688,60.156 150.400 C 67.669 150.846,72.283 148.580,75.819 142.708 L 76.038 142.344 76.040 145.911 L 76.042 149.479 83.125 149.479 L 90.208 149.479 90.208 124.812 L 90.208 100.145 83.151 100.151 L 76.094 100.156 76.065 103.854 L 76.037 107.552 75.613 106.771 C 72.643 101.299,66.881 98.584,59.705 99.275 M119.323 99.242 C 104.523 99.717,96.639 107.395,95.927 122.031 C 95.162 137.735,100.460 146.633,112.292 149.518 C 119.978 151.392,131.036 150.367,135.212 147.393 L 135.498 147.190 134.102 142.944 C 133.335 140.609,132.565 138.245,132.390 137.691 L 132.073 136.684 130.981 137.142 C 121.345 141.178,113.098 138.623,111.147 130.995 C 110.791 129.602,110.729 128.685,110.729 124.792 C 110.729 120.064,110.860 118.984,111.672 117.035 C 114.318 110.679,122.733 109.011,131.774 113.049 L 132.142 113.213 133.832 107.935 C 134.761 105.031,135.521 102.606,135.521 102.545 C 135.521 102.372,134.127 101.618,132.945 101.151 C 129.424 99.759,124.540 99.075,119.323 99.242 M264.896 99.285 C 250.962 100.500,243.604 109.246,243.613 124.583 C 243.623 141.302,251.803 150.169,267.486 150.460 C 282.934 150.748,291.574 142.541,292.399 126.797 C 293.370 108.262,282.833 97.721,264.896 99.285 M318.802 99.282 C 305.165 100.489,297.829 108.779,297.428 123.438 C 296.941 141.217,305.938 150.822,322.739 150.460 C 335.296 150.190,343.237 143.975,345.518 132.632 C 346.641 127.046,346.463 120.190,345.064 115.099 C 342.022 104.032,332.171 98.099,318.802 99.282 M157.664 99.388 C 145.151 100.591,138.225 107.901,137.396 120.781 C 136.319 137.538,141.437 146.753,153.452 149.687 C 160.368 151.376,171.520 150.820,178.669 148.430 C 180.047 147.969,182.018 147.131,182.179 146.938 C 182.305 146.786,179.577 136.808,179.420 136.847 C 179.367 136.860,178.643 137.109,177.813 137.400 C 169.589 140.283,160.275 140.669,156.325 138.290 C 153.935 136.851,152.867 134.814,152.140 130.307 L 152.097 130.041 167.637 130.049 C 176.184 130.053,183.247 130.041,183.333 130.023 C 183.500 129.987,183.546 121.766,183.394 119.271 C 182.532 105.172,173.124 97.902,157.664 99.388 M164.271 109.678 C 168.034 110.688,170.030 113.759,170.278 118.917 L 170.345 120.313 161.266 120.313 L 152.188 120.313 152.188 119.818 C 152.190 115.749,154.125 111.838,156.823 110.449 C 158.865 109.397,162.010 109.071,164.271 109.678 M68.333 111.143 C 72.113 111.918,74.549 114.919,75.156 119.549 C 75.377 121.234,75.379 129.322,75.159 130.679 C 74.329 135.800,70.921 138.815,65.990 138.793 C 59.265 138.763,56.387 134.314,56.595 124.271 C 56.734 117.523,58.194 113.825,61.458 111.950 C 63.095 111.010,66.012 110.667,68.333 111.143 M217.083 111.245 C 221.887 112.628,223.880 117.052,223.723 125.979 C 223.571 134.637,220.793 138.584,214.688 138.823 C 209.664 139.019,206.224 136.504,204.919 131.681 C 204.603 130.515,204.436 122.234,204.684 120.093 C 205.264 115.091,207.839 111.988,212.149 111.093 C 213.249 110.864,216.062 110.951,217.083 111.245 M270.751 111.290 C 274.262 112.187,276.530 114.795,277.420 118.958 C 277.682 120.187,277.815 127.584,277.607 129.417 C 276.941 135.303,273.546 138.706,268.153 138.895 C 262.963 139.076,259.338 135.653,258.584 129.856 C 258.320 127.821,258.425 120.232,258.737 118.827 C 260.068 112.839,264.915 109.799,270.751 111.290 M324.192 111.192 C 328.340 112.067,330.952 115.416,331.456 120.506 C 331.596 121.922,331.592 127.643,331.450 129.160 C 330.878 135.273,327.261 138.883,321.719 138.873 C 316.676 138.865,313.432 135.896,312.495 130.432 C 312.228 128.877,312.193 121.225,312.445 119.583 C 313.412 113.292,318.138 109.915,324.192 111.192 " stroke="none" fill="#000000" fill-rule="evenodd"></path></g></svg>